<?xml version="1.0" encoding="utf-8"?>
<!-- Generator: Adobe Illustrator 23.0.0, SVG Export Plug-In . SVG Version: 6.00 Build 0)  -->
<svg version="1.1" xmlns="http://www.w3.org/2000/svg" xmlns:xlink="http://www.w3.org/1999/xlink" x="0px" y="0px" width="637.8px"
	 height="637.8px" viewBox="0 0 637.8 637.8" style="enable-background:new 0 0 637.8 637.8;" xml:space="preserve">
<style type="text/css">
	.st0{fill:none;stroke:#000000;stroke-width:0.5;stroke-linecap:round;stroke-linejoin:round;}
</style>
<g id="Layer_1">
	<g id="outline">
		<line class="st0" x1="298.5" y1="347.6" x2="334.9" y2="347.7"/>
		<line class="st0" x1="382.9" y1="386.7" x2="400.8" y2="404.6"/>
		<line class="st0" x1="375.8" y1="381.8" x2="381.8" y2="387.8"/>
		<line class="st0" x1="377" y1="380.7" x2="382.9" y2="386.7"/>
		<line class="st0" x1="370.3" y1="376.3" x2="375.8" y2="381.8"/>
		<line class="st0" x1="356.7" y1="362.6" x2="358.8" y2="364.7"/>
		<line class="st0" x1="371.5" y1="375.1" x2="377" y2="380.7"/>
		<line class="st0" x1="357.9" y1="361.5" x2="360" y2="363.6"/>
		<line class="st0" x1="629.6" y1="636.7" x2="400.1" y2="406"/>
		<line class="st0" x1="401" y1="405.1" x2="630.5" y2="635.8"/>
		<line class="st0" x1="406.6" y1="366.5" x2="406.8" y2="366.7"/>
		<line class="st0" x1="361.7" y1="411.5" x2="361.5" y2="411.3"/>
		<line class="st0" x1="377.6" y1="400.8" x2="375.1" y2="403.3"/>
		<line class="st0" x1="398.5" y1="380" x2="396" y2="382.5"/>
		<line class="st0" x1="250.3" y1="386.3" x2="232.3" y2="404.2"/>
		<line class="st0" x1="251.4" y1="387.5" x2="233.4" y2="405.4"/>
		<line class="st0" x1="256.3" y1="380.4" x2="250.3" y2="386.3"/>
		<line class="st0" x1="257.4" y1="381.5" x2="251.4" y2="387.5"/>
		<line class="st0" x1="261.8" y1="374.8" x2="256.3" y2="380.4"/>
		<line class="st0" x1="275.5" y1="361.3" x2="273.4" y2="363.3"/>
		<line class="st0" x1="262.9" y1="376" x2="257.4" y2="381.5"/>
		<line class="st0" x1="276.6" y1="362.4" x2="274.5" y2="364.5"/>
		<line class="st0" x1="1.4" y1="634.1" x2="232.1" y2="404.6"/>
		<line class="st0" x1="233" y1="405.5" x2="2.3" y2="635.1"/>
		<line class="st0" x1="271.6" y1="411.1" x2="271.4" y2="411.3"/>
		<line class="st0" x1="226.5" y1="366.2" x2="226.8" y2="366"/>
		<line class="st0" x1="237.3" y1="382.2" x2="234.8" y2="379.6"/>
		<line class="st0" x1="258.1" y1="403" x2="255.6" y2="400.5"/>
		<line class="st0" x1="251.8" y1="254.8" x2="233.9" y2="236.8"/>
		<line class="st0" x1="250.6" y1="256" x2="232.7" y2="238"/>
		<line class="st0" x1="257.7" y1="260.8" x2="251.8" y2="254.8"/>
		<line class="st0" x1="256.6" y1="262" x2="250.6" y2="256"/>
		<line class="st0" x1="263.2" y1="266.3" x2="257.7" y2="260.8"/>
		<line class="st0" x1="276.8" y1="280" x2="274.7" y2="277.9"/>
		<line class="st0" x1="262.1" y1="267.5" x2="256.6" y2="262"/>
		<line class="st0" x1="275.7" y1="281.1" x2="273.5" y2="279"/>
		<line class="st0" x1="3.9" y1="5.9" x2="233.5" y2="236.6"/>
		<line class="st0" x1="232.5" y1="237.6" x2="3" y2="6.9"/>
		<line class="st0" x1="227" y1="276.2" x2="226.8" y2="275.9"/>
		<line class="st0" x1="271.8" y1="231.1" x2="272" y2="231.3"/>
		<line class="st0" x1="255.9" y1="241.9" x2="258.5" y2="239.3"/>
		<line class="st0" x1="235.1" y1="262.6" x2="237.6" y2="260.1"/>
		<line class="st0" x1="361.9" y1="231.5" x2="362.1" y2="231.3"/>
		<line class="st0" x1="407" y1="276.4" x2="406.8" y2="276.6"/>
		<line class="st0" x1="396.2" y1="260.5" x2="398.7" y2="263"/>
		<line class="st0" x1="375.5" y1="239.6" x2="378" y2="242.1"/>
		<path class="st0" d="M364.9,367.4C364.9,367.4,364.9,367.4,364.9,367.4"/>
		<path class="st0" d="M270.7,369.5C270.7,369.5,270.7,369.5,270.7,369.5"/>
		<path class="st0" d="M268.6,275.2C268.6,275.2,268.6,275.2,268.6,275.2"/>
		<path class="st0" d="M362.9,273.2C362.9,273.2,362.9,273.2,362.9,273.2"/>
		<line class="st0" x1="632.1" y1="8.5" x2="401.4" y2="238"/>
		<line class="st0" x1="400.5" y1="237.1" x2="631.2" y2="7.6"/>
		<line class="st0" x1="383.3" y1="256.3" x2="401.2" y2="238.4"/>
		<line class="st0" x1="382.1" y1="255.2" x2="400.1" y2="237.3"/>
		<line class="st0" x1="377.3" y1="262.3" x2="383.3" y2="256.3"/>
		<line class="st0" x1="376.1" y1="261.1" x2="382.1" y2="255.2"/>
		<line class="st0" x1="371.7" y1="267.8" x2="377.3" y2="262.3"/>
		<line class="st0" x1="358.1" y1="281.4" x2="360.2" y2="279.3"/>
		<line class="st0" x1="370.6" y1="266.6" x2="376.1" y2="261.1"/>
		<line class="st0" x1="356.9" y1="280.2" x2="359.1" y2="278.1"/>
		<path class="st0" d="M400.8,404.6c0.3,0.3,0.2,0.8-0.1,1.1c-0.3,0.3-0.8,0.4-1.1,0.1"/>
		<path class="st0" d="M273,283.8c-0.1,0.1-0.3,0.1-0.5,0"/>
		<line class="st0" x1="279.5" y1="277.4" x2="273" y2="283.8"/>
		<path class="st0" d="M279.5,276.9c0.1,0.1,0.1,0.3,0,0.5"/>
		<line class="st0" x1="276.5" y1="273.9" x2="279.5" y2="276.9"/>
		<path class="st0" d="M254.3,321.7c0-0.4,0-0.8,0-1.2"/>
		<line class="st0" x1="259" y1="326" x2="256.7" y2="326"/>
		<path class="st0" d="M259.3,325.7c0,0.2-0.1,0.3-0.3,0.3"/>
		<line class="st0" x1="259.3" y1="316.6" x2="259.3" y2="325.7"/>
		<path class="st0" d="M259,316.3c0.2,0,0.3,0.1,0.3,0.3"/>
		<line class="st0" x1="256.7" y1="316.3" x2="259" y2="316.3"/>
		<path class="st0" d="M269.4,362c-0.1-0.1-0.1-0.3,0-0.4"/>
		<line class="st0" x1="269.9" y1="362.6" x2="269.4" y2="362"/>
		<path class="st0" d="M271.4,364.2c-0.5-0.5-1-1.1-1.5-1.6"/>
		<path class="st0" d="M272.7,365.6c-0.1-0.1-0.3-0.3-0.4-0.4"/>
		<path class="st0" d="M275.2,368c-0.5-0.5-1.1-1-1.6-1.5"/>
		<line class="st0" x1="275.8" y1="368.5" x2="275.2" y2="368"/>
		<path class="st0" d="M276.3,368.5c-0.1,0.1-0.3,0.1-0.4,0"/>
		<line class="st0" x1="279.2" y1="365.5" x2="276.3" y2="368.5"/>
		<path class="st0" d="M279.2,365.1c0.1,0.1,0.1,0.3,0,0.5"/>
		<line class="st0" x1="272.8" y1="358.6" x2="279.2" y2="365.1"/>
		<path class="st0" d="M272.4,358.6c0.1-0.1,0.3-0.1,0.5,0"/>
		<line class="st0" x1="269.4" y1="361.6" x2="272.4" y2="358.6"/>
		<path class="st0" d="M364.9,367.4c0.9-1.1,1.6-2.3,2.1-3.6"/>
		<path class="st0" d="M363.3,369.1c0.3-0.3,0.6-0.6,0.9-0.9"/>
		<path class="st0" d="M359.1,371.8c1.3-0.5,2.4-1.2,3.5-2.1"/>
		<line class="st0" x1="325.5" y1="385.6" x2="359.1" y2="371.8"/>
		<line class="st0" x1="274.2" y1="371.6" x2="307.7" y2="385.5"/>
		<path class="st0" d="M270.7,369.5c1.1,0.9,2.3,1.6,3.6,2.1"/>
		<path class="st0" d="M269,367.9c0.3,0.3,0.6,0.6,0.9,0.9"/>
		<path class="st0" d="M266.3,363.6c0.5,1.3,1.2,2.4,2.1,3.5"/>
		<line class="st0" x1="252.5" y1="330" x2="266.3" y2="363.6"/>
		<line class="st0" x1="266.5" y1="278.8" x2="252.5" y2="312.3"/>
		<path class="st0" d="M268.6,275.2c-0.9,1.1-1.6,2.3-2.1,3.6"/>
		<path class="st0" d="M270.2,273.5c-0.3,0.3-0.6,0.6-0.9,0.9"/>
		<path class="st0" d="M274.5,270.8c-1.3,0.5-2.4,1.2-3.5,2.1"/>
		<line class="st0" x1="308.1" y1="257" x2="274.5" y2="270.8"/>
		<line class="st0" x1="359.3" y1="271.1" x2="325.8" y2="257.1"/>
		<path class="st0" d="M362.9,273.2c-1.1-0.9-2.3-1.6-3.6-2.1"/>
		<path class="st0" d="M364.5,274.7c-0.3-0.3-0.6-0.6-0.9-0.9"/>
		<path class="st0" d="M367.2,279c-0.5-1.3-1.2-2.4-2.1-3.5"/>
		<line class="st0" x1="381" y1="312.6" x2="367.2" y2="279"/>
		<line class="st0" x1="367" y1="363.9" x2="381" y2="330.4"/>
		<path class="st0" d="M632.2,8.5c0-0.1-0.1-0.3-0.2-0.3c-0.1-0.1-0.1-0.2-0.2-0.2c-0.1-0.1-0.2-0.2-0.2-0.2
			c-0.1-0.1-0.1-0.1-0.2-0.1c0,0,0,0-0.1,0c0,0,0,0.1,0,0.1c0,0.1,0.1,0.1,0.1,0.2c0.1,0.1,0.1,0.2,0.2,0.2
			C631.7,8.1,632,8.5,632.2,8.5"/>
		<path class="st0" d="M632.1,8.5C632.1,8.5,632.1,8.5,632.1,8.5"/>
		<path class="st0" d="M400.1,237.3c0.3-0.3,0.8-0.2,1.1,0.1c0.3,0.3,0.4,0.8,0.1,1.1"/>
		<path class="st0" d="M629.6,636.7c0.1,0,0.3-0.1,0.3-0.2c0.1-0.1,0.2-0.1,0.2-0.2c0.1-0.1,0.2-0.2,0.2-0.2c0-0.1,0.1-0.1,0.1-0.2
			c0,0,0,0,0-0.1c0,0-0.1,0-0.1,0c-0.1,0-0.1,0.1-0.2,0.1c-0.1,0.1-0.2,0.1-0.2,0.2C629.9,636.2,629.6,636.6,629.6,636.7"/>
		<path class="st0" d="M629.6,636.7C629.6,636.7,629.6,636.7,629.6,636.7"/>
		<path class="st0" d="M367.8,371.8c0.7,0.8-0.1,1.6-0.9,0.9"/>
		<path class="st0" d="M364.5,408.8c-0.1,0-0.2,0.1-0.4,0.1"/>
		<path class="st0" d="M382,395c-4.2,6.4-10.5,11-17.5,13.8"/>
		<path class="st0" d="M385.1,391.1c-1.1,1.2-2.1,2.5-3.1,3.9"/>
		<path class="st0" d="M390.2,386.9c-1.4,0.9-2.7,1.9-4,3.1"/>
		<path class="st0" d="M404,369.5c-2.8,6.9-7.5,13.2-13.9,17.4"/>
		<path class="st0" d="M404.1,369.1c0,0.1,0,0.2-0.1,0.4"/>
		<path class="st0" d="M383.9,386.4c0.5,0.5,1.2,0.7,1.9,0.6"/>
		<path class="st0" d="M382.7,385.2c0.4,0.4,0.8,0.8,1.1,1.2"/>
		<path class="st0" d="M380.9,384.6c0.1,0,0.2,0,0.2,0c0.1,0,0.2,0,0.3,0c0.2,0,0.3,0.1,0.5,0.1c0.3,0.1,0.6,0.3,0.9,0.5"/>
		<path class="st0" d="M380.4,387.5c-0.4-0.4-0.7-1.1-0.7-1.7"/>
		<path class="st0" d="M381.6,388.7c-0.4-0.4-0.8-0.8-1.1-1.2"/>
		<path class="st0" d="M382.1,390.6c0.2-0.7,0-1.4-0.5-1.9"/>
		<path class="st0" d="M376.2,401.7c2.8-3.2,5-6.9,5.9-11.1"/>
		<path class="st0" d="M361.5,409.9c-0.1,0.4-0.3,1,0,1.4"/>
		<path class="st0" d="M364.3,372.7c2.3,12.1,1.5,25.6-2.8,37.2"/>
		<path class="st0" d="M362.5,369.7c0.8,0.8,1.5,1.9,1.7,3.1"/>
		<path class="st0" d="M359,363.8c-0.1,0.1-0.1,0.2-0.2,0.3c0,0.1-0.1,0.2-0.1,0.4c0,0.1,0,0.3,0,0.4c0,0.2,0.1,0.3,0.1,0.5
			c0.1,0.4,0.3,0.7,0.5,1c0.2,0.4,0.5,0.7,0.8,1"/>
		<path class="st0" d="M362.6,365.1c-0.1-0.1-0.3-0.3-0.5-0.4c-0.2-0.1-0.3-0.3-0.5-0.4c-0.3-0.2-0.7-0.4-1-0.5
			c-0.2-0.1-0.3-0.1-0.5-0.1c-0.1,0-0.3,0-0.4,0c-0.1,0-0.2,0-0.4,0.1c-0.1,0-0.2,0.1-0.3,0.2"/>
		<path class="st0" d="M367.9,369.1c-1.2-0.2-2.2-0.9-3.1-1.7"/>
		<path class="st0" d="M405.2,366.4c-11.7,4.2-25.1,5-37.2,2.7"/>
		<path class="st0" d="M406.6,366.5c-0.3-0.3-1-0.2-1.4,0"/>
		<path class="st0" d="M385.8,386.9c4.2-0.9,7.9-3,11.1-5.8"/>
		<path class="st0" d="M368,371.9c0.3,0.3,0.5,0.8,0.2,1.1c-0.3,0.3-0.8,0.1-1.1-0.2"/>
		<path class="st0" d="M362.1,366c2,2,3.9,4,5.9,5.9"/>
		<path class="st0" d="M361.2,366.9c-0.2-0.2-0.3-0.4-0.4-0.6c-0.1-0.2-0.2-0.5,0-0.7s0.5-0.1,0.7,0c0.2,0.1,0.4,0.3,0.6,0.5"/>
		<path class="st0" d="M367.1,372.8c-2-2-3.9-4-5.9-5.9"/>
		<path class="st0" d="M371.7,375.3c1.5-1.2,3.4-1.7,5.2-1.8"/>
		<path class="st0" d="M368.7,381.7c0-1.9,0.6-3.8,1.8-5.3"/>
		<path class="st0" d="M364.2,408.5c3-8.3,4.4-18,4.5-26.8"/>
		<path class="st0" d="M364.7,409c-0.5,0.2-0.7,0-0.5-0.5"/>
		<path class="st0" d="M382.2,395.2c-4.2,6.4-10.5,11-17.5,13.8"/>
		<path class="st0" d="M385.3,391.3c-1.1,1.2-2.1,2.5-3.1,3.9"/>
		<path class="st0" d="M390.4,387.1c-1.4,0.9-2.7,1.9-4,3.1"/>
		<path class="st0" d="M404.2,369.7c-2.8,6.9-7.5,13.2-13.9,17.4"/>
		<path class="st0" d="M403.7,369.2c0.5-0.2,0.7,0,0.5,0.5"/>
		<path class="st0" d="M376.9,373.6c8.8-0.1,18.5-1.4,26.8-4.4"/>
		<path class="st0" d="M363,411.5c4.4-2,8.6-4.8,12.1-8.2"/>
		<path class="st0" d="M361.7,410.2c-0.5,1.3,0.1,1.9,1.3,1.3"/>
		<path class="st0" d="M364.5,373c2.3,12.1,1.5,25.6-2.8,37.2"/>
		<path class="st0" d="M362.6,369.7c0.9,0.9,1.7,2,1.9,3.2"/>
		<path class="st0" d="M360.5,367.6c0.7,0.7,1.4,1.4,2.1,2.1"/>
		<path class="st0" d="M359.2,364c-0.1,0.1-0.1,0.2-0.2,0.3c0,0.1-0.1,0.2-0.1,0.4c0,0.1,0,0.3,0,0.4c0,0.2,0.1,0.3,0.1,0.5
			c0.1,0.4,0.3,0.7,0.5,1c0.2,0.4,0.5,0.7,0.8,1"/>
		<path class="st0" d="M362.8,365.3c-0.1-0.1-0.3-0.3-0.5-0.4s-0.3-0.3-0.5-0.4c-0.3-0.2-0.7-0.4-1-0.5c-0.2-0.1-0.3-0.1-0.5-0.1
			c-0.1,0-0.3,0-0.4,0c-0.1,0-0.2,0-0.4,0.1c-0.1,0-0.2,0.1-0.3,0.2"/>
		<path class="st0" d="M364.9,367.4c-0.7-0.7-1.4-1.4-2.1-2.1"/>
		<path class="st0" d="M368.1,369.3c-1.2-0.2-2.4-1-3.2-1.9"/>
		<path class="st0" d="M405.4,366.6c-11.7,4.2-25.1,5-37.2,2.7"/>
		<path class="st0" d="M406.7,368c0.6-1.3-0.1-1.8-1.3-1.3"/>
		<path class="st0" d="M398.5,380c3.5-3.4,6.2-7.6,8.2-12"/>
		<path class="st0" d="M233.4,405.4c-0.3,0.3-0.8,0.2-1.1-0.1s-0.4-0.8-0.1-1.1"/>
		<path class="st0" d="M1.4,634.2c0,0.1,0.1,0.3,0.2,0.3c0.1,0.1,0.1,0.2,0.2,0.2c0.1,0.1,0.2,0.2,0.2,0.2c0.1,0,0.1,0.1,0.2,0.1
			c0,0,0,0,0.1,0c0,0,0-0.1,0-0.1c0-0.1-0.1-0.1-0.1-0.2c-0.1-0.1-0.1-0.2-0.2-0.2C1.9,634.5,1.5,634.1,1.4,634.2"/>
		<path class="st0" d="M1.4,634.1C1.4,634.1,1.4,634.1,1.4,634.1"/>
		<path class="st0" d="M266.3,372.4c-0.8,0.7-1.6-0.1-0.9-0.9"/>
		<path class="st0" d="M229.3,369.1c0-0.1-0.1-0.2-0.1-0.4"/>
		<path class="st0" d="M243.1,386.5c-6.4-4.2-11-10.5-13.8-17.5"/>
		<path class="st0" d="M247,389.6c-1.2-1.1-2.5-2.1-3.9-3.1"/>
		<path class="st0" d="M251.2,394.7c-0.9-1.4-1.9-2.7-3.1-4"/>
		<path class="st0" d="M268.6,408.6c-6.9-2.8-13.2-7.5-17.4-13.9"/>
		<path class="st0" d="M269,408.6c-0.1,0-0.2,0-0.4-0.1"/>
		<path class="st0" d="M251.7,388.4c-0.5,0.5-0.7,1.2-0.6,1.9"/>
		<path class="st0" d="M252.9,387.3c-0.4,0.4-0.8,0.8-1.2,1.1"/>
		<path class="st0" d="M253.5,385.4c0,0.1,0,0.2,0,0.2c0,0.1,0,0.2,0,0.3c0,0.2-0.1,0.3-0.1,0.5c-0.1,0.3-0.3,0.6-0.5,0.9"/>
		<path class="st0" d="M250.6,385c0.4-0.4,1.1-0.7,1.7-0.7"/>
		<path class="st0" d="M249.4,386.1c0.4-0.4,0.8-0.8,1.2-1.1"/>
		<path class="st0" d="M247.5,386.7c0.7,0.2,1.4,0,1.9-0.5"/>
		<path class="st0" d="M236.4,380.8c3.2,2.8,6.9,5,11.1,5.9"/>
		<path class="st0" d="M228.1,366c-0.4-0.1-1-0.3-1.4,0"/>
		<path class="st0" d="M265.3,368.8c-12.1,2.3-25.6,1.5-37.2-2.8"/>
		<path class="st0" d="M268.4,367.1c-0.8,0.8-1.9,1.5-3.1,1.7"/>
		<path class="st0" d="M274.3,363.6c-0.1-0.1-0.2-0.1-0.3-0.2c-0.1,0-0.2-0.1-0.4-0.1c-0.1,0-0.3,0-0.4,0c-0.2,0-0.3,0.1-0.5,0.1
			c-0.4,0.1-0.7,0.3-1,0.5c-0.4,0.2-0.7,0.5-1,0.8"/>
		<path class="st0" d="M273,367.1c0.1-0.1,0.3-0.3,0.4-0.5c0.1-0.2,0.3-0.3,0.4-0.5c0.2-0.3,0.4-0.7,0.5-1c0.1-0.2,0.1-0.3,0.1-0.5
			c0-0.1,0-0.3,0-0.4c0-0.1,0-0.2-0.1-0.4c0-0.1-0.1-0.2-0.2-0.3"/>
		<path class="st0" d="M269,372.5c0.2-1.2,0.9-2.2,1.7-3.1"/>
		<path class="st0" d="M271.6,409.7c-4.2-11.7-5-25.1-2.7-37.2"/>
		<path class="st0" d="M271.6,411.1c0.3-0.3,0.2-1,0-1.4"/>
		<path class="st0" d="M251.1,390.3c0.9,4.2,3,7.9,5.8,11.1"/>
		<path class="st0" d="M266.2,372.6c-0.3,0.3-0.8,0.5-1.1,0.2c-0.3-0.3-0.1-0.8,0.2-1.1"/>
		<path class="st0" d="M272.1,366.6c-2,2-4,3.9-5.9,5.9"/>
		<path class="st0" d="M271.2,365.7c0.2-0.2,0.4-0.3,0.6-0.4c0.2-0.1,0.5-0.2,0.7,0s0.1,0.5,0,0.7c-0.1,0.2-0.3,0.4-0.5,0.6"/>
		<path class="st0" d="M265.2,371.6c2-2,4-3.9,5.9-5.9"/>
		<path class="st0" d="M262.7,376.2c1.2,1.5,1.7,3.4,1.8,5.2"/>
		<path class="st0" d="M256.3,373.3c1.9,0,3.8,0.6,5.3,1.8"/>
		<path class="st0" d="M229.6,368.8c8.3,3,18,4.4,26.8,4.5"/>
		<path class="st0" d="M229,369.3c-0.2-0.5,0-0.7,0.5-0.5"/>
		<path class="st0" d="M242.9,386.8c-6.4-4.2-11-10.5-13.8-17.5"/>
		<path class="st0" d="M246.8,389.8c-1.2-1.1-2.5-2.1-3.9-3.1"/>
		<path class="st0" d="M251,394.9c-0.9-1.4-1.9-2.7-3.1-4"/>
		<path class="st0" d="M268.4,408.8c-6.9-2.8-13.2-7.5-17.4-13.9"/>
		<path class="st0" d="M268.9,408.3c0.2,0.5,0,0.7-0.5,0.5"/>
		<path class="st0" d="M264.5,381.5c0.1,8.8,1.4,18.5,4.4,26.8"/>
		<path class="st0" d="M226.6,367.6c2,4.4,4.8,8.6,8.2,12.1"/>
		<path class="st0" d="M227.9,366.2c-1.3-0.5-1.9,0.1-1.3,1.3"/>
		<path class="st0" d="M265.1,369c-12.1,2.3-25.6,1.5-37.2-2.8"/>
		<path class="st0" d="M268.4,367.1c-0.9,0.9-2,1.7-3.2,1.9"/>
		<path class="st0" d="M270.5,365c-0.7,0.7-1.4,1.4-2.1,2.1"/>
		<path class="st0" d="M274,363.8c-0.1-0.1-0.2-0.1-0.3-0.2c-0.1,0-0.2-0.1-0.4-0.1c-0.1,0-0.3,0-0.4,0c-0.2,0-0.3,0.1-0.5,0.1
			c-0.4,0.1-0.7,0.3-1,0.5c-0.4,0.2-0.7,0.5-1,0.8"/>
		<path class="st0" d="M272.8,367.3c0.1-0.1,0.3-0.3,0.4-0.5c0.1-0.2,0.3-0.3,0.4-0.5c0.2-0.3,0.4-0.7,0.5-1
			c0.1-0.2,0.1-0.3,0.1-0.5c0-0.1,0-0.3,0-0.4c0-0.1,0-0.2-0.1-0.4c0-0.1-0.1-0.2-0.2-0.3"/>
		<path class="st0" d="M270.7,369.4c0.7-0.7,1.4-1.4,2.1-2.1"/>
		<path class="st0" d="M268.8,372.7c0.2-1.2,1-2.4,1.9-3.2"/>
		<path class="st0" d="M271.4,409.9c-4.2-11.7-5-25.1-2.7-37.2"/>
		<path class="st0" d="M270.1,411.3c1.3,0.6,1.8-0.1,1.3-1.3"/>
		<path class="st0" d="M258.1,403c3.4,3.5,7.6,6.2,12,8.2"/>
		<path class="st0" d="M232.7,238c-0.3-0.3-0.2-0.8,0.1-1.1c0.3-0.3,0.8-0.4,1.1-0.1"/>
		<path class="st0" d="M3.9,5.9c-0.1,0-0.3,0.1-0.3,0.2C3.6,6.2,3.5,6.2,3.4,6.3C3.3,6.4,3.2,6.5,3.2,6.6c0,0.1-0.1,0.1-0.1,0.2
			c0,0,0,0.1,0,0.1c0,0,0.1,0,0.1,0c0.1,0,0.1-0.1,0.2-0.1c0.1-0.1,0.2-0.1,0.2-0.2C3.6,6.4,3.9,6.1,3.9,5.9"/>
		<path class="st0" d="M3.9,5.9C3.9,5.9,3.9,5.9,3.9,5.9"/>
		<path class="st0" d="M265.7,270.9c-0.7-0.8,0.1-1.6,0.9-0.9"/>
		<path class="st0" d="M269,233.8c0.1,0,0.2-0.1,0.4-0.1"/>
		<path class="st0" d="M251.5,247.6c4.2-6.4,10.5-11,17.5-13.8"/>
		<path class="st0" d="M248.5,251.5c1.1-1.2,2.1-2.5,3.1-3.9"/>
		<path class="st0" d="M243.3,255.8c1.4-0.9,2.7-1.9,4-3.1"/>
		<path class="st0" d="M229.5,273.1c2.8-6.9,7.5-13.2,13.9-17.4"/>
		<path class="st0" d="M229.4,273.5c0-0.1,0-0.2,0.1-0.4"/>
		<path class="st0" d="M249.7,256.2c-0.5-0.5-1.2-0.7-1.9-0.6"/>
		<path class="st0" d="M250.8,257.4c-0.4-0.4-0.8-0.8-1.1-1.2"/>
		<path class="st0" d="M252.7,258c-0.1,0-0.2,0-0.2,0c-0.1,0-0.2,0-0.3,0c-0.2,0-0.3-0.1-0.5-0.1c-0.3-0.1-0.6-0.3-0.9-0.5"/>
		<path class="st0" d="M253.1,255.1c0.4,0.4,0.7,1.1,0.7,1.7"/>
		<path class="st0" d="M252,253.9c0.4,0.4,0.8,0.8,1.1,1.2"/>
		<path class="st0" d="M251.4,252c-0.2,0.7,0,1.4,0.5,1.9"/>
		<path class="st0" d="M257.3,241c-2.8,3.2-5,6.9-5.9,11.1"/>
		<path class="st0" d="M272.1,232.7c0.1-0.4,0.3-1,0-1.4"/>
		<path class="st0" d="M269.3,269.9c-2.3-12.1-1.5-25.6,2.8-37.2"/>
		<path class="st0" d="M271,273c-0.8-0.8-1.5-1.9-1.7-3.1"/>
		<path class="st0" d="M274.5,278.8c0.1-0.1,0.1-0.2,0.2-0.3c0-0.1,0.1-0.2,0.1-0.4c0-0.1,0-0.3,0-0.4c0-0.2-0.1-0.3-0.1-0.5
			c-0.1-0.4-0.3-0.7-0.5-1c-0.2-0.4-0.5-0.7-0.8-1"/>
		<path class="st0" d="M271,277.5c0.1,0.1,0.3,0.3,0.5,0.4s0.3,0.3,0.5,0.4c0.3,0.2,0.7,0.4,1,0.5c0.2,0.1,0.3,0.1,0.5,0.1
			c0.1,0,0.3,0,0.4,0c0.1,0,0.2,0,0.4-0.1c0.1,0,0.2-0.1,0.3-0.2"/>
		<path class="st0" d="M265.6,273.5c1.2,0.2,2.2,0.9,3.1,1.7"/>
		<path class="st0" d="M228.4,276.2c11.7-4.2,25.1-5,37.2-2.7"/>
		<path class="st0" d="M227,276.2c0.3,0.3,1,0.2,1.4,0"/>
		<path class="st0" d="M247.8,255.7c-4.2,0.9-7.9,3-11.1,5.8"/>
		<path class="st0" d="M265.5,270.7c-0.3-0.3-0.5-0.8-0.2-1.1c0.3-0.3,0.8-0.1,1.1,0.2"/>
		<path class="st0" d="M271.4,276.6c-2-2-3.9-4-5.9-5.9"/>
		<path class="st0" d="M272.4,275.7c0.2,0.2,0.3,0.4,0.4,0.6c0.1,0.2,0.2,0.5,0,0.7s-0.5,0.1-0.7,0c-0.2-0.1-0.4-0.3-0.6-0.5"/>
		<path class="st0" d="M266.5,269.8c2,2,3.9,4,5.9,5.9"/>
		<path class="st0" d="M261.9,267.3c-1.5,1.2-3.4,1.7-5.2,1.8"/>
		<path class="st0" d="M264.8,260.9c0,1.9-0.6,3.8-1.8,5.3"/>
		<path class="st0" d="M269.3,234.1c-3,8.3-4.4,18-4.5,26.8"/>
		<path class="st0" d="M268.8,233.6c0.5-0.2,0.7,0,0.5,0.5"/>
		<path class="st0" d="M251.3,247.4c4.2-6.4,10.5-11,17.5-13.8"/>
		<path class="st0" d="M248.3,251.3c1.1-1.2,2.1-2.5,3.1-3.9"/>
		<path class="st0" d="M243.1,255.5c1.4-0.9,2.7-1.9,4-3.1"/>
		<path class="st0" d="M229.3,272.9c2.8-6.9,7.5-13.2,13.9-17.4"/>
		<path class="st0" d="M229.8,273.4c-0.5,0.2-0.7,0-0.5-0.5"/>
		<path class="st0" d="M256.6,269c-8.8,0.1-18.5,1.4-26.8,4.4"/>
		<path class="st0" d="M270.5,231.1c-4.4,2-8.6,4.8-12.1,8.2"/>
		<path class="st0" d="M271.9,232.5c0.5-1.3-0.1-1.9-1.3-1.3"/>
		<path class="st0" d="M269.1,269.7c-2.3-12.1-1.5-25.6,2.8-37.2"/>
		<path class="st0" d="M270.9,272.9c-0.9-0.9-1.7-2-1.9-3.2"/>
		<path class="st0" d="M273.1,275c-0.7-0.7-1.4-1.4-2.1-2.1"/>
		<path class="st0" d="M274.3,278.6c0.1-0.1,0.1-0.2,0.2-0.3c0-0.1,0.1-0.2,0.1-0.4c0-0.1,0-0.3,0-0.4c0-0.2-0.1-0.3-0.1-0.5
			c-0.1-0.4-0.3-0.7-0.5-1c-0.2-0.4-0.5-0.7-0.8-1"/>
		<path class="st0" d="M270.8,277.3c0.1,0.1,0.3,0.3,0.5,0.4c0.2,0.1,0.3,0.3,0.5,0.4c0.3,0.2,0.7,0.4,1,0.5
			c0.2,0.1,0.3,0.1,0.5,0.1c0.1,0,0.3,0,0.4,0c0.1,0,0.2,0,0.4-0.1c0.1,0,0.2-0.1,0.3-0.2"/>
		<path class="st0" d="M268.6,275.2c0.7,0.7,1.4,1.4,2.1,2.1"/>
		<path class="st0" d="M265.4,273.3c1.2,0.2,2.4,1,3.2,1.9"/>
		<path class="st0" d="M228.2,276c11.7-4.2,25.1-5,37.2-2.7"/>
		<path class="st0" d="M226.8,274.6c-0.6,1.3,0.1,1.8,1.3,1.3"/>
		<path class="st0" d="M235.1,262.6c-3.5,3.4-6.2,7.6-8.2,12"/>
		<path class="st0" d="M367.2,270.2c0.8-0.7,1.6,0.1,0.9,0.9"/>
		<path class="st0" d="M404.3,273.6c0,0.1,0.1,0.2,0.1,0.4"/>
		<path class="st0" d="M390.5,256.1c6.4,4.2,11,10.5,13.8,17.5"/>
		<path class="st0" d="M386.6,253c1.2,1.1,2.5,2.1,3.9,3.1"/>
		<path class="st0" d="M382.3,247.9c0.9,1.4,1.9,2.7,3.1,4"/>
		<path class="st0" d="M364.9,234c6.9,2.8,13.2,7.5,17.4,13.9"/>
		<path class="st0" d="M364.6,234c0.1,0,0.2,0,0.4,0.1"/>
		<path class="st0" d="M381.8,254.2c0.5-0.5,0.7-1.2,0.6-1.9"/>
		<path class="st0" d="M380.7,255.4c0.4-0.4,0.8-0.8,1.2-1.1"/>
		<path class="st0" d="M380,257.2c0-0.1,0-0.2,0-0.2c0-0.1,0-0.2,0-0.3c0-0.2,0.1-0.3,0.1-0.5c0.1-0.3,0.3-0.6,0.5-0.9"/>
		<path class="st0" d="M383,257.7c-0.4,0.4-1.1,0.7-1.7,0.7"/>
		<path class="st0" d="M384.1,256.5c-0.4,0.4-0.8,0.8-1.2,1.1"/>
		<path class="st0" d="M386,256c-0.7-0.2-1.4,0-1.9,0.5"/>
		<path class="st0" d="M397.1,261.9c-3.2-2.8-6.9-5-11.1-5.9"/>
		<path class="st0" d="M405.4,276.6c0.4,0.1,1,0.3,1.4,0"/>
		<path class="st0" d="M368.2,273.8c12.1-2.3,25.6-1.5,37.2,2.8"/>
		<path class="st0" d="M365.1,275.5c0.8-0.8,1.9-1.5,3.1-1.7"/>
		<path class="st0" d="M359.3,279c0.1,0.1,0.2,0.1,0.3,0.2c0.1,0,0.2,0.1,0.4,0.1c0.1,0,0.3,0,0.4,0c0.2,0,0.3-0.1,0.5-0.1
			c0.4-0.1,0.7-0.3,1-0.5c0.4-0.2,0.7-0.5,1-0.8"/>
		<path class="st0" d="M360.5,275.5c-0.1,0.1-0.3,0.3-0.4,0.5c-0.1,0.2-0.3,0.3-0.4,0.5c-0.2,0.3-0.4,0.7-0.5,1
			c-0.1,0.2-0.1,0.3-0.1,0.5c0,0.1,0,0.3,0,0.4c0,0.1,0,0.2,0.1,0.4c0,0.1,0.1,0.2,0.2,0.3"/>
		<path class="st0" d="M364.6,270.2c-0.2,1.2-0.9,2.2-1.7,3.1"/>
		<path class="st0" d="M361.9,232.9c4.2,11.7,5,25.1,2.7,37.2"/>
		<path class="st0" d="M361.9,231.5c-0.3,0.3-0.2,1,0,1.4"/>
		<path class="st0" d="M382.4,252.3c-0.9-4.2-3-7.9-5.8-11.1"/>
		<path class="st0" d="M367.4,270.1c0.3-0.3,0.8-0.5,1.1-0.2c0.3,0.3,0.1,0.8-0.2,1.1"/>
		<path class="st0" d="M361.4,276c2-2,4-3.9,5.9-5.9"/>
		<path class="st0" d="M362.4,276.9c-0.2,0.2-0.4,0.3-0.6,0.4c-0.2,0.1-0.5,0.2-0.7,0s-0.1-0.5,0-0.7c0.1-0.2,0.3-0.4,0.5-0.6"/>
		<path class="st0" d="M368.3,271c-2,2-4,3.9-5.9,5.9"/>
		<path class="st0" d="M370.8,266.4c-1.2-1.5-1.7-3.4-1.8-5.2"/>
		<path class="st0" d="M377.2,269.4c-1.9,0-3.8-0.6-5.3-1.8"/>
		<path class="st0" d="M404,273.9c-8.3-3-18-4.4-26.8-4.5"/>
		<path class="st0" d="M404.5,273.4c0.2,0.5,0,0.7-0.5,0.5"/>
		<path class="st0" d="M390.7,255.9c6.4,4.2,11,10.5,13.8,17.5"/>
		<path class="st0" d="M386.8,252.8c1.2,1.1,2.5,2.1,3.9,3.1"/>
		<path class="st0" d="M382.5,247.7c0.9,1.4,1.9,2.7,3.1,4"/>
		<path class="st0" d="M365.2,233.8c6.9,2.8,13.2,7.5,17.4,13.9"/>
		<path class="st0" d="M364.6,234.3c-0.2-0.5,0-0.7,0.5-0.5"/>
		<path class="st0" d="M369,261.2c-0.1-8.8-1.4-18.5-4.4-26.8"/>
		<path class="st0" d="M407,275.1c-2-4.4-4.8-8.6-8.2-12.1"/>
		<path class="st0" d="M405.6,276.4c1.3,0.5,1.9-0.1,1.3-1.3"/>
		<path class="st0" d="M368.4,273.6c12.1-2.3,25.6-1.5,37.2,2.8"/>
		<path class="st0" d="M365.2,275.5c0.9-0.9,2-1.7,3.2-1.9"/>
		<path class="st0" d="M363,277.6c0.7-0.7,1.4-1.4,2.1-2.1"/>
		<path class="st0" d="M359.5,278.8c0.1,0.1,0.2,0.1,0.3,0.2c0.1,0,0.2,0.1,0.4,0.1c0.1,0,0.3,0,0.4,0c0.2,0,0.3-0.1,0.5-0.1
			c0.4-0.1,0.7-0.3,1-0.5c0.4-0.2,0.7-0.5,1-0.8"/>
		<path class="st0" d="M360.7,275.3c-0.1,0.1-0.3,0.3-0.4,0.5c-0.1,0.2-0.3,0.3-0.4,0.5c-0.2,0.3-0.4,0.7-0.5,1
			c-0.1,0.2-0.1,0.3-0.1,0.5c0,0.1,0,0.3,0,0.4c0,0.1,0,0.2,0.1,0.4c0,0.1,0.1,0.2,0.2,0.3"/>
		<path class="st0" d="M362.9,273.2c-0.7,0.7-1.4,1.4-2.1,2.1"/>
		<path class="st0" d="M364.8,269.9c-0.2,1.2-1,2.4-1.9,3.2"/>
		<path class="st0" d="M363.4,231.4c-1.3-0.6-1.8,0.1-1.3,1.3"/>
		<path class="st0" d="M375.5,239.6c-3.4-3.5-7.6-6.2-12-8.2"/>
		<path class="st0" d="M374.8,325.6c-0.3,0-0.6-0.3-0.6-0.6"/>
		<line class="st0" x1="376.2" y1="325.7" x2="374.8" y2="325.6"/>
		<path class="st0" d="M363.4,362c0.3,0.2,0.3,0.6,0.1,0.9"/>
		<line class="st0" x1="360.6" y1="359.6" x2="363.4" y2="362"/>
		<path class="st0" d="M359.8,359.6c0.2-0.2,0.6-0.2,0.8,0"/>
		<path class="st0" d="M354.8,365.4c-0.2-0.2-0.2-0.6,0-0.8"/>
		<line class="st0" x1="357.2" y1="368.1" x2="354.8" y2="365.4"/>
		<path class="st0" d="M358,368.2c-0.3,0.2-0.7,0.2-0.9-0.1"/>
		<line class="st0" x1="320.7" y1="379.4" x2="320.8" y2="380.7"/>
		<path class="st0" d="M320.1,378.8c0.3,0,0.6,0.3,0.6,0.6"/>
		<path class="st0" d="M312.5,379.4c0-0.3,0.3-0.6,0.6-0.6"/>
		<line class="st0" x1="312.4" y1="380.7" x2="312.5" y2="379.4"/>
		<path class="st0" d="M276.1,367.9c-0.2,0.3-0.6,0.3-0.9,0.1"/>
		<line class="st0" x1="278.5" y1="365.2" x2="276.1" y2="367.9"/>
		<path class="st0" d="M278.5,364.3c0.2,0.2,0.2,0.6,0,0.8"/>
		<path class="st0" d="M272.7,359.4c0.2-0.2,0.6-0.2,0.8,0"/>
		<line class="st0" x1="270" y1="361.7" x2="272.7" y2="359.4"/>
		<path class="st0" d="M269.9,362.6c-0.2-0.3-0.2-0.7,0.1-0.9"/>
		<line class="st0" x1="258.7" y1="325.3" x2="257.3" y2="325.4"/>
		<path class="st0" d="M259.3,324.7c0,0.3-0.3,0.6-0.6,0.6"/>
		<path class="st0" d="M258.7,317.1c0.3,0,0.6,0.3,0.6,0.6"/>
		<line class="st0" x1="257.4" y1="317" x2="258.7" y2="317.1"/>
		<path class="st0" d="M270.2,280.7c-0.3-0.2-0.3-0.6-0.1-0.9"/>
		<line class="st0" x1="272.9" y1="283" x2="270.2" y2="280.7"/>
		<path class="st0" d="M273.7,283.1c-0.2,0.2-0.6,0.2-0.8,0"/>
		<path class="st0" d="M278.7,277.2c0.2,0.2,0.2,0.6,0,0.8"/>
		<line class="st0" x1="276.4" y1="274.5" x2="278.7" y2="277.2"/>
		<path class="st0" d="M275.5,274.4c0.3-0.2,0.7-0.2,0.9,0.1"/>
		<line class="st0" x1="312.8" y1="263.2" x2="312.7" y2="261.9"/>
		<path class="st0" d="M313.4,263.8c-0.3,0-0.6-0.3-0.6-0.6"/>
		<path class="st0" d="M321,263.3c0,0.3-0.3,0.6-0.6,0.6"/>
		<line class="st0" x1="321.1" y1="261.9" x2="321" y2="263.3"/>
		<path class="st0" d="M357.4,274.7c0.2-0.3,0.6-0.3,0.9-0.1"/>
		<line class="st0" x1="355" y1="277.4" x2="357.4" y2="274.7"/>
		<path class="st0" d="M355,278.3c-0.2-0.2-0.2-0.6,0-0.8"/>
		<path class="st0" d="M360.8,283.3c-0.2,0.2-0.6,0.2-0.8,0"/>
		<line class="st0" x1="363.6" y1="280.9" x2="360.8" y2="283.3"/>
		<path class="st0" d="M363.7,280c0.2,0.3,0.2,0.7-0.1,0.9"/>
		<line class="st0" x1="374.9" y1="317.4" x2="376.2" y2="317.3"/>
		<path class="st0" d="M374.2,317.9c0-0.3,0.3-0.6,0.6-0.6"/>
		<line class="st0" x1="367.9" y1="300.3" x2="367.9" y2="302.7"/>
		<line class="st0" x1="362.9" y1="300.3" x2="367.9" y2="300.3"/>
		<line class="st0" x1="362.9" y1="302.7" x2="362.9" y2="300.3"/>
		<path class="st0" d="M362.7,302.9c0.1,0,0.2-0.1,0.2-0.2"/>
		<line class="st0" x1="343.4" y1="302.8" x2="362.7" y2="302.9"/>
		<path class="st0" d="M343.1,303.2c0-0.2,0.1-0.3,0.3-0.3"/>
		<line class="st0" x1="343" y1="339.6" x2="343.1" y2="303.2"/>
		<path class="st0" d="M343.3,339.9c-0.2,0-0.3-0.1-0.3-0.3"/>
		<line class="st0" x1="368.7" y1="340" x2="343.3" y2="339.9"/>
		<path class="st0" d="M369.1,339.7c0,0.2-0.1,0.3-0.3,0.3"/>
		<line class="st0" x1="369.1" y1="324.2" x2="369.1" y2="339.7"/>
		<line class="st0" x1="370.7" y1="324.2" x2="369.1" y2="324.2"/>
		<path class="st0" d="M370.7,323.6c0.2,0,0.3,0.1,0.3,0.3c0,0.2-0.1,0.3-0.3,0.3"/>
		<line class="st0" x1="369.3" y1="323.6" x2="370.7" y2="323.6"/>
		<path class="st0" d="M369.1,323.4c0,0.1,0.1,0.2,0.2,0.2"/>
		<line class="st0" x1="369.1" y1="319.5" x2="369.1" y2="323.4"/>
		<path class="st0" d="M369.3,319.3c-0.1,0-0.2,0.1-0.2,0.2"/>
		<line class="st0" x1="370.7" y1="319.3" x2="369.3" y2="319.3"/>
		<path class="st0" d="M370.7,318.7c0.2,0,0.3,0.1,0.3,0.3s-0.1,0.3-0.3,0.3"/>
		<line class="st0" x1="369.1" y1="318.7" x2="370.7" y2="318.7"/>
		<line class="st0" x1="369.2" y1="303.2" x2="369.1" y2="318.7"/>
		<path class="st0" d="M368.8,302.9c0.2,0,0.3,0.1,0.3,0.3"/>
		<line class="st0" x1="368.1" y1="302.9" x2="368.8" y2="302.9"/>
		<path class="st0" d="M367.9,302.7c0,0.1,0.1,0.2,0.2,0.2"/>
		<line class="st0" x1="321.7" y1="303.8" x2="321.6" y2="338.9"/>
		<line class="st0" x1="311.9" y1="303.7" x2="321.7" y2="303.8"/>
		<line class="st0" x1="311.8" y1="338.9" x2="311.9" y2="303.7"/>
		<line class="st0" x1="321.6" y1="338.9" x2="311.8" y2="338.9"/>
		<line class="st0" x1="264.4" y1="318.4" x2="264.5" y2="303"/>
		<line class="st0" x1="262.8" y1="318.4" x2="264.4" y2="318.4"/>
		<path class="st0" d="M262.8,319.1c-0.2,0-0.3-0.1-0.3-0.3c0-0.2,0.1-0.3,0.3-0.3"/>
		<line class="st0" x1="264.3" y1="319.1" x2="262.8" y2="319.1"/>
		<path class="st0" d="M264.4,319.2c0-0.1-0.1-0.2-0.2-0.2"/>
		<line class="st0" x1="264.4" y1="323.1" x2="264.4" y2="319.2"/>
		<path class="st0" d="M264.3,323.3c0.1,0,0.2-0.1,0.2-0.2"/>
		<line class="st0" x1="262.8" y1="323.3" x2="264.3" y2="323.3"/>
		<path class="st0" d="M262.8,323.9c-0.2,0-0.3-0.1-0.3-0.3c0-0.2,0.1-0.3,0.3-0.3"/>
		<line class="st0" x1="264.4" y1="323.9" x2="262.8" y2="323.9"/>
		<line class="st0" x1="264.4" y1="339.4" x2="264.4" y2="323.9"/>
		<path class="st0" d="M264.7,339.7c-0.2,0-0.3-0.1-0.3-0.3"/>
		<line class="st0" x1="290.1" y1="339.8" x2="264.7" y2="339.7"/>
		<path class="st0" d="M290.4,339.5c0,0.2-0.1,0.3-0.3,0.3"/>
		<line class="st0" x1="290.5" y1="303" x2="290.4" y2="339.5"/>
		<path class="st0" d="M290.2,302.7c0.2,0,0.3,0.1,0.3,0.3"/>
		<line class="st0" x1="264.8" y1="302.6" x2="290.2" y2="302.7"/>
		<path class="st0" d="M264.5,303c0-0.2,0.1-0.3,0.3-0.3"/>
		<path class="st0" d="M298.4,269.3c0-0.2,0.1-0.3,0.3-0.3"/>
		<line class="st0" x1="298.3" y1="294.6" x2="298.4" y2="269.3"/>
		<path class="st0" d="M298.6,295c-0.2,0-0.3-0.1-0.3-0.3"/>
		<line class="st0" x1="335.1" y1="295.1" x2="298.6" y2="295"/>
		<path class="st0" d="M335.4,294.7c0,0.2-0.1,0.3-0.3,0.3"/>
		<line class="st0" x1="335.5" y1="269.4" x2="335.4" y2="294.7"/>
		<path class="st0" d="M335.1,269c0.2,0,0.3,0.1,0.3,0.3"/>
		<line class="st0" x1="319.7" y1="269" x2="335.1" y2="269"/>
		<line class="st0" x1="319.7" y1="267.4" x2="319.7" y2="269"/>
		<path class="st0" d="M319,267.4c0-0.2,0.1-0.3,0.3-0.3s0.3,0.1,0.3,0.3"/>
		<line class="st0" x1="319" y1="268.8" x2="319" y2="267.4"/>
		<path class="st0" d="M318.9,269c0.1,0,0.2-0.1,0.2-0.2"/>
		<line class="st0" x1="314.9" y1="269" x2="318.9" y2="269"/>
		<path class="st0" d="M314.8,268.8c0,0.1,0.1,0.2,0.2,0.2"/>
		<line class="st0" x1="314.8" y1="267.3" x2="314.8" y2="268.8"/>
		<path class="st0" d="M314.1,267.3c0-0.2,0.1-0.3,0.3-0.3c0.2,0,0.3,0.1,0.3,0.3"/>
		<line class="st0" x1="314.1" y1="269" x2="314.1" y2="267.3"/>
		<line class="st0" x1="298.7" y1="268.9" x2="314.1" y2="269"/>
		<line class="st0" x1="313.9" y1="373.6" x2="298.4" y2="373.6"/>
		<line class="st0" x1="313.9" y1="375.3" x2="313.9" y2="373.6"/>
		<path class="st0" d="M314.5,375.3c0,0.2-0.1,0.3-0.3,0.3s-0.3-0.1-0.3-0.3"/>
		<line class="st0" x1="314.5" y1="373.8" x2="314.5" y2="375.3"/>
		<path class="st0" d="M314.7,373.6c-0.1,0-0.2,0.1-0.2,0.2"/>
		<line class="st0" x1="318.6" y1="373.7" x2="314.7" y2="373.6"/>
		<path class="st0" d="M318.8,373.8c0-0.1-0.1-0.2-0.2-0.2"/>
		<line class="st0" x1="318.7" y1="375.3" x2="318.8" y2="373.8"/>
		<path class="st0" d="M319.4,375.3c0,0.2-0.1,0.3-0.3,0.3c-0.2,0-0.3-0.1-0.3-0.3"/>
		<line class="st0" x1="319.4" y1="373.7" x2="319.4" y2="375.3"/>
		<line class="st0" x1="334.9" y1="373.7" x2="319.4" y2="373.7"/>
		<path class="st0" d="M335.2,373.4c0,0.2-0.1,0.3-0.3,0.3"/>
		<line class="st0" x1="335.3" y1="348" x2="335.2" y2="373.4"/>
		<path class="st0" d="M334.9,347.7c0.2,0,0.3,0.1,0.3,0.3"/>
		<line class="st0" x1="381.8" y1="387.8" x2="399.7" y2="405.8"/>
		<path class="st0" d="M298.1,347.9c0-0.2,0.1-0.3,0.3-0.3"/>
		<line class="st0" x1="298.1" y1="373.3" x2="298.1" y2="347.9"/>
		<path class="st0" d="M298.4,373.6c-0.2,0-0.3-0.1-0.3-0.3"/>
		<path class="st0" d="M317.2,383.8c-0.4,0-0.8,0-1.2,0"/>
		<line class="st0" x1="321.5" y1="379.1" x2="321.5" y2="381.4"/>
		<path class="st0" d="M321.2,378.8c0.2,0,0.3,0.1,0.3,0.3"/>
		<line class="st0" x1="312.1" y1="378.8" x2="321.2" y2="378.8"/>
		<path class="st0" d="M311.7,379.1c0-0.2,0.1-0.3,0.3-0.3"/>
		<line class="st0" x1="311.7" y1="381.4" x2="311.7" y2="379.1"/>
		<path class="st0" d="M357.5,368.7c-0.1,0.1-0.3,0.1-0.4,0"/>
		<line class="st0" x1="358.1" y1="368.2" x2="357.5" y2="368.7"/>
		<path class="st0" d="M359.7,366.7c-0.5,0.5-1.1,1-1.6,1.5"/>
		<path class="st0" d="M361,365.4c-0.1,0.1-0.3,0.3-0.4,0.4"/>
		<path class="st0" d="M363.4,362.9c-0.5,0.5-1,1.1-1.5,1.6"/>
		<line class="st0" x1="364" y1="362.3" x2="363.4" y2="362.9"/>
		<path class="st0" d="M364,361.8c0.1,0.1,0.1,0.3,0,0.4"/>
		<line class="st0" x1="361" y1="358.8" x2="364" y2="361.8"/>
		<path class="st0" d="M360.5,358.8c0.1-0.1,0.3-0.1,0.5,0"/>
		<line class="st0" x1="354.1" y1="365.3" x2="360.5" y2="358.8"/>
		<path class="st0" d="M354.1,365.7c-0.1-0.1-0.1-0.3,0-0.5"/>
		<line class="st0" x1="357" y1="368.7" x2="354.1" y2="365.7"/>
		<path class="st0" d="M379.3,320.9c0,0.4,0,0.8,0,1.2"/>
		<line class="st0" x1="374.6" y1="316.6" x2="376.9" y2="316.6"/>
		<path class="st0" d="M374.2,316.9c0-0.2,0.1-0.3,0.3-0.3"/>
		<line class="st0" x1="374.2" y1="326" x2="374.2" y2="316.9"/>
		<path class="st0" d="M374.5,326.3c-0.2,0-0.3-0.1-0.3-0.3"/>
		<line class="st0" x1="376.9" y1="326.4" x2="374.5" y2="326.3"/>
		<path class="st0" d="M364.2,280.6c0.1,0.1,0.1,0.3,0,0.4"/>
		<line class="st0" x1="363.6" y1="280" x2="364.2" y2="280.6"/>
		<path class="st0" d="M362.2,278.4c0.5,0.5,1,1.1,1.5,1.6"/>
		<path class="st0" d="M360.9,277c0.1,0.1,0.3,0.3,0.4,0.4"/>
		<path class="st0" d="M358.3,274.7c0.5,0.5,1.1,1,1.6,1.5"/>
		<line class="st0" x1="357.7" y1="274.1" x2="358.3" y2="274.7"/>
		<path class="st0" d="M357.3,274.1c0.1-0.1,0.3-0.1,0.4,0"/>
		<line class="st0" x1="354.3" y1="277.1" x2="357.3" y2="274.1"/>
		<path class="st0" d="M354.3,277.6c-0.1-0.1-0.1-0.3,0-0.5"/>
		<line class="st0" x1="360.7" y1="284" x2="354.3" y2="277.6"/>
		<path class="st0" d="M361.2,284c-0.1,0.1-0.3,0.1-0.5,0"/>
		<line class="st0" x1="364.2" y1="281" x2="361.2" y2="284"/>
		<path class="st0" d="M316.3,258.8c0.4,0,0.8,0,1.2,0"/>
		<line class="st0" x1="312" y1="263.5" x2="312" y2="261.2"/>
		<path class="st0" d="M312.4,263.8c-0.2,0-0.3-0.1-0.3-0.3"/>
		<line class="st0" x1="321.5" y1="263.9" x2="312.4" y2="263.8"/>
		<path class="st0" d="M321.8,263.5c0,0.2-0.1,0.3-0.3,0.3"/>
		<line class="st0" x1="321.8" y1="261.2" x2="321.8" y2="263.5"/>
		<path class="st0" d="M276.1,273.9c0.1-0.1,0.3-0.1,0.4,0"/>
		<line class="st0" x1="275.4" y1="274.4" x2="276.1" y2="273.9"/>
		<path class="st0" d="M273.8,275.9c0.5-0.5,1.1-1,1.6-1.5"/>
		<path class="st0" d="M272.5,277.2c0.1-0.1,0.3-0.3,0.4-0.4"/>
		<path class="st0" d="M270.1,279.7c0.5-0.5,1-1.1,1.5-1.6"/>
		<line class="st0" x1="269.6" y1="280.4" x2="270.1" y2="279.7"/>
		<path class="st0" d="M269.6,280.8c-0.1-0.1-0.1-0.3,0-0.4"/>
		<line class="st0" x1="272.5" y1="283.8" x2="269.6" y2="280.8"/>
		<line class="st0" x1="269.1" y1="269.7" x2="269.3" y2="269.9"/>
		<line class="st0" x1="377" y1="380.7" x2="375.8" y2="381.8"/>
		<line class="st0" x1="271.9" y1="232.5" x2="272.1" y2="232.7"/>
		<line class="st0" x1="365.2" y1="233.8" x2="364.9" y2="234"/>
		<line class="st0" x1="390.4" y1="387.1" x2="390.2" y2="386.9"/>
		<line class="st0" x1="382.2" y1="395.2" x2="382" y2="395"/>
		<line class="st0" x1="364.7" y1="409" x2="364.5" y2="408.8"/>
		<line class="st0" x1="404.2" y1="369.7" x2="404" y2="369.5"/>
		<line class="st0" x1="405.4" y1="366.6" x2="405.2" y2="366.4"/>
		<line class="st0" x1="368.1" y1="369.3" x2="367.9" y2="369.1"/>
		<line class="st0" x1="364.9" y1="367.4" x2="364.7" y2="367.2"/>
		<line class="st0" x1="359" y1="363.8" x2="359.2" y2="364"/>
		<line class="st0" x1="362.8" y1="365.3" x2="362.6" y2="365.1"/>
		<line class="st0" x1="364.5" y1="373" x2="364.3" y2="372.7"/>
		<line class="st0" x1="361.7" y1="410.2" x2="361.5" y2="409.9"/>
		<line class="st0" x1="362.1" y1="232.7" x2="361.9" y2="232.9"/>
		<line class="st0" x1="364.8" y1="269.9" x2="364.6" y2="270.2"/>
		<line class="st0" x1="362.9" y1="273.2" x2="362.7" y2="273.4"/>
		<line class="st0" x1="359.3" y1="279" x2="359.5" y2="278.8"/>
		<line class="st0" x1="360.7" y1="275.3" x2="360.5" y2="275.5"/>
		<line class="st0" x1="368.4" y1="273.6" x2="368.2" y2="273.8"/>
		<line class="st0" x1="405.6" y1="276.4" x2="405.4" y2="276.6"/>
		<path class="st0" d="M382.1,255.2c0.3-0.3,0.8-0.2,1.1,0.1c0.3,0.3,0.4,0.8,0.1,1.1"/>
		<line class="st0" x1="376.1" y1="261.1" x2="377.3" y2="262.3"/>
		<line class="st0" x1="382.5" y1="247.7" x2="382.3" y2="247.9"/>
		<path class="st0" d="M251.4,387.5c-0.3,0.3-0.8,0.2-1.1-0.1c-0.3-0.3-0.4-0.8-0.1-1.1"/>
		<line class="st0" x1="257.4" y1="381.5" x2="256.3" y2="380.4"/>
		<path class="st0" d="M250.6,256c-0.3-0.3-0.2-0.8,0.1-1.1c0.3-0.3,0.8-0.4,1.1-0.1"/>
		<line class="st0" x1="256.6" y1="262" x2="257.7" y2="260.8"/>
		<line class="st0" x1="251" y1="394.9" x2="251.2" y2="394.7"/>
		<line class="st0" x1="242.9" y1="386.8" x2="243.1" y2="386.5"/>
		<line class="st0" x1="229" y1="369.3" x2="229.3" y2="369.1"/>
		<line class="st0" x1="268.4" y1="408.8" x2="268.6" y2="408.6"/>
		<line class="st0" x1="271.4" y1="409.9" x2="271.6" y2="409.7"/>
		<line class="st0" x1="268.8" y1="372.7" x2="269" y2="372.5"/>
		<line class="st0" x1="270.7" y1="369.4" x2="270.9" y2="369.2"/>
		<line class="st0" x1="274.3" y1="363.6" x2="274" y2="363.8"/>
		<line class="st0" x1="272.8" y1="367.3" x2="273" y2="367.1"/>
		<line class="st0" x1="270.5" y1="365" x2="270.7" y2="364.8"/>
		<line class="st0" x1="265.1" y1="369" x2="265.3" y2="368.8"/>
		<line class="st0" x1="227.9" y1="366.2" x2="228.1" y2="366"/>
		<line class="st0" x1="390.7" y1="255.9" x2="390.5" y2="256.1"/>
		<line class="st0" x1="404.5" y1="273.4" x2="404.3" y2="273.6"/>
		<line class="st0" x1="243.1" y1="255.5" x2="243.3" y2="255.8"/>
		<line class="st0" x1="251.3" y1="247.4" x2="251.5" y2="247.6"/>
		<line class="st0" x1="268.8" y1="233.6" x2="269" y2="233.8"/>
		<line class="st0" x1="229.3" y1="272.9" x2="229.5" y2="273.1"/>
		<line class="st0" x1="228.2" y1="276" x2="228.4" y2="276.2"/>
		<line class="st0" x1="265.4" y1="273.3" x2="265.6" y2="273.5"/>
		<line class="st0" x1="268.6" y1="275.2" x2="268.8" y2="275.4"/>
		<line class="st0" x1="274.5" y1="278.8" x2="274.3" y2="278.6"/>
		<line class="st0" x1="270.8" y1="277.3" x2="271" y2="277.5"/>
		<path class="st0" d="M382.9,386.7c0.3,0.3,0.2,0.8-0.1,1.1c-0.3,0.3-0.8,0.4-1.1,0.1"/>
		<path class="st0" d="M225.3,344.5c6-6.3,12-12.6,18.1-19c0.1-0.1,0.1-0.2,0.2-0.2c0.1-0.1,0.2-0.2,0.3-0.4c0.5-0.5,0.8-1.2,1-1.8
			c0.2-0.7,0.4-1.4,0.3-2.1c0-0.3,0-0.7-0.1-1c-0.1-0.3-0.2-0.7-0.3-1c-0.2-0.6-0.6-1.2-1.1-1.7c-0.1-0.1-0.1-0.1-0.2-0.2
			c-0.1-0.1-0.1-0.2-0.2-0.2c-0.1-0.1-0.1-0.1-0.2-0.2c-5.9-6.3-11.9-12.6-17.8-18.9c0,0,0,0-0.1-0.1c-0.1-0.1-0.3-0.2-0.4-0.3
			c-0.2-0.1-0.4-0.1-0.5-0.1c-0.2,0-0.4,0-0.5,0.1c-0.1,0-0.2,0.1-0.2,0.1c-0.1,0.1-0.1,0.1-0.2,0.2c0,0,0,0-0.1,0.1
			c0,0,0,0-0.1,0.1c-5.9,6.2-11.7,12.3-17.6,18.5c-0.1,0.2-0.3,0.3-0.4,0.5c-0.1,0.1-0.2,0.2-0.2,0.2c0,0-0.1,0.1-0.1,0.1
			c-0.5,0.5-0.8,1.2-1.1,1.8c-0.3,0.7-0.4,1.4-0.4,2.2c0,0.7,0.2,1.5,0.5,2.1c0.2,0.4,0.4,0.9,0.7,1.3c0.1,0.2,0.3,0.3,0.4,0.5
			c0.1,0.1,0.1,0.1,0.2,0.2c0.1,0.1,0.1,0.1,0.1,0.2c0.2,0.2,0.4,0.5,0.7,0.7c0.1,0.1,0.2,0.3,0.4,0.4c0.6,0.6,1.2,1.3,1.8,1.9
			c1.1,1.1,2.2,2.3,3.2,3.4c1.1,1.1,2.1,2.3,3.2,3.4c1.2,1.2,2.3,2.5,3.5,3.7c1.6,1.7,3.2,3.4,4.8,5.1c0,0,0.1,0.1,0.1,0.1
			c0.1,0.1,0.1,0.1,0.2,0.2c0,0,0.1,0.1,0.1,0.1c0,0,0.1,0.1,0.1,0.1c0,0,0,0,0.1,0c0.1,0.1,0.3,0.2,0.4,0.2c0.2,0,0.3,0.1,0.5,0.1
			c0.2,0,0.3,0,0.5-0.1C225.1,344.7,225.2,344.6,225.3,344.5z"/>
		<path class="st0" d="M226.5,290c5.8,4.4,11.4,9.1,16.9,13.9c5.4,4.7,10.6,9.7,15.7,14.8c0,0,0,0,0,0c0,0,0,0,0,0c0,0,0,0,0,0
			c0,0,0,0,0,0c0,0,0,0,0,0.1c0,0,0,0,0,0.1c0,0,0,0,0,0c0,0,0,0,0,0c0,0,0,0-0.1,0.1c-0.4,0.4-0.7,0.7-1.1,1.1c0,0-0.1,0.1-0.1,0.1
			c0,0,0,0,0,0c0,0,0,0,0,0c0,0,0,0,0,0c0,0,0,0,0,0c-0.1,0-0.3,0-0.4,0c-0.7,0-1.4,0-2,0c0,0-0.1,0-0.1,0c0,0-0.1,0-0.1,0
			c-0.1,0-0.1,0-0.2,0c-0.1,0-0.2,0.1-0.3,0.1c-0.1,0.1-0.2,0.2-0.3,0.3c-0.1,0.2-0.2,0.4-0.2,0.6c0,0.2,0.1,0.4,0.2,0.6
			c0.1,0.2,0.3,0.3,0.5,0.3c0.1,0,0.2,0,0.3,0c0,0,0,0,0.1,0c0,0,0,0,0,0c0.8,0,1.6,0,2.4,0c0,0,0,0,0.1,0c0,0,0.1,0,0.1,0
			c0,0,0,0,0,0c0,0,0,0,0.1,0.1c0,0,0,0,0.1,0.1c0.3,0.3,0.6,0.7,1,1c0,0,0.1,0.1,0.1,0.1c0,0,0,0,0.1,0.1c0,0,0,0,0,0c0,0,0,0,0,0
			c0,0,0,0,0,0.1c0,0,0,0,0,0c0,0,0,0,0,0c0,0,0,0-0.1,0.1c-1,0.9-1.9,1.9-2.9,2.8c-1.7,1.6-3.3,3.2-5,4.8c-3.2,2.9-6.4,5.8-9.7,8.6
			c-3.7,3.1-7.4,6.2-11.2,9.2c-0.8,0.6-1.5,1.2-2.3,1.8c-0.4,0.3-0.9,0.7-1.4,1c-0.1,0.1-0.2,0.1-0.2,0.2c0,0-0.1,0-0.1,0.1
			c-0.1,0-0.1,0.1-0.2,0.1c-0.2,0.1-0.3,0.2-0.5,0.3c-0.2,0.1-0.4,0.1-0.5,0.2c-0.5,0.1-1.1,0.1-1.6,0c-0.3-0.1-0.5-0.2-0.7-0.3
			c-0.2-0.1-0.4-0.3-0.6-0.5c-0.1,0-0.1-0.1-0.2-0.2c-0.2-0.2-0.4-0.4-0.6-0.6c-0.4-0.4-0.8-0.8-1.1-1.1c-8-8-15.9-16-23.9-24
			c-0.1-0.1-0.2-0.2-0.3-0.3c-0.1-0.1-0.2-0.2-0.4-0.3c-0.1-0.1-0.2-0.2-0.4-0.2c-0.3-0.1-0.5-0.2-0.8-0.3c-0.1,0-0.2-0.1-0.4-0.1
			c-0.1,0-0.1,0-0.2,0c-0.1,0-0.1,0-0.2,0c-0.1,0-0.3,0-0.4,0c-0.1,0-0.3,0-0.4,0c-16.5-0.5-33-1-49.4-1.5
			c-14.7-0.5-29.4-0.9-44.1-1.4c0,0-0.1,0-0.1,0c0,0-0.1,0-0.1,0c-0.1,0-0.3,0-0.4-0.1c-0.1,0-0.3-0.1-0.4-0.2c0,0-0.1-0.1-0.1-0.1
			c-0.1-0.1-0.1-0.1-0.2-0.2c0-0.1-0.1-0.1-0.1-0.2c0-0.1,0-0.1-0.1-0.2c0-0.2,0-0.4,0-0.5c0-0.2,0.1-0.4,0.3-0.5
			c0,0,0.1-0.1,0.1-0.1c0,0,0.1-0.1,0.1-0.1c0.1-0.1,0.2-0.1,0.2-0.1c0.1,0,0.2-0.1,0.2-0.1c0,0,0.1,0,0.1,0c0.1,0,0.1,0,0.2,0
			c0.1,0,0.1,0,0.2,0s0.1,0,0.2,0c27.7-0.7,55.4-1.4,83-2.1c2.9-0.1,5.8-0.1,8.7-0.2c0.4,0,0.9,0,1.3,0c0.4,0,0.8,0,1.2,0
			c0.1,0,0.3,0,0.4,0c0.1,0,0.3,0,0.4-0.1c0.4-0.1,0.7-0.3,1.1-0.5c0.2-0.1,0.3-0.2,0.4-0.4c0,0,0.1-0.1,0.1-0.1
			c0.1-0.1,0.2-0.2,0.4-0.4c8.4-8.4,16.9-16.8,25.3-25.1c0.1-0.1,0.1-0.1,0.2-0.2c0.1-0.1,0.2-0.2,0.3-0.2c0.6-0.5,1.3-0.8,2-0.8
			c0.4,0,0.8,0.1,1.1,0.2C225.9,289.6,226.2,289.8,226.5,290z"/>
		<path class="st0" d="M293.6,229.9c6.3,6,12.6,12,19,18.1c0.1,0.1,0.2,0.1,0.2,0.2c0.1,0.1,0.2,0.2,0.4,0.3c0.5,0.5,1.2,0.8,1.8,1
			c0.7,0.2,1.4,0.4,2.1,0.3c0.3,0,0.7,0,1-0.1c0.3-0.1,0.7-0.2,1-0.3c0.6-0.2,1.2-0.6,1.7-1.1c0.1-0.1,0.1-0.1,0.2-0.2
			c0.1-0.1,0.2-0.1,0.2-0.2c0.1-0.1,0.1-0.1,0.2-0.2c6.3-5.9,12.6-11.9,18.9-17.8c0,0,0,0,0.1-0.1c0.1-0.1,0.2-0.3,0.3-0.4
			c0.1-0.2,0.1-0.4,0.1-0.5c0-0.2,0-0.4-0.1-0.5c0-0.1-0.1-0.2-0.1-0.2c-0.1-0.1-0.1-0.1-0.2-0.2c0,0,0,0-0.1-0.1c0,0,0,0-0.1-0.1
			c-6.2-5.9-12.3-11.7-18.5-17.6c-0.2-0.1-0.3-0.3-0.5-0.4c-0.1-0.1-0.2-0.2-0.2-0.2c0,0-0.1-0.1-0.1-0.1c-0.5-0.5-1.2-0.8-1.8-1.1
			c-0.7-0.3-1.4-0.4-2.2-0.4c-0.7,0-1.5,0.2-2.1,0.5c-0.4,0.2-0.9,0.4-1.3,0.7c-0.2,0.1-0.3,0.3-0.5,0.4c-0.1,0.1-0.1,0.1-0.2,0.2
			c-0.1,0.1-0.1,0.1-0.2,0.1c-0.2,0.2-0.5,0.4-0.7,0.7c-0.1,0.1-0.3,0.2-0.4,0.4c-0.6,0.6-1.3,1.2-1.9,1.8c-1.1,1.1-2.3,2.2-3.4,3.2
			c-1.1,1.1-2.3,2.1-3.4,3.2c-1.2,1.2-2.5,2.3-3.7,3.5c-1.7,1.6-3.4,3.2-5.1,4.8c0,0-0.1,0.1-0.1,0.1c-0.1,0.1-0.1,0.1-0.2,0.2
			c0,0-0.1,0.1-0.1,0.1c0,0-0.1,0.1-0.1,0.1c0,0,0,0,0,0.1c-0.1,0.1-0.2,0.3-0.2,0.4c0,0.2-0.1,0.3-0.1,0.5c0,0.2,0,0.3,0.1,0.5
			C293.4,229.6,293.5,229.7,293.6,229.9z"/>
		<path class="st0" d="M348.1,231c-4.4,5.8-9.1,11.4-13.9,16.9c-4.7,5.4-9.7,10.6-14.8,15.7c0,0,0,0,0,0c0,0,0,0,0,0c0,0,0,0,0,0
			c0,0,0,0,0,0c0,0,0,0-0.1,0c0,0,0,0-0.1,0c0,0,0,0,0,0c0,0,0,0,0,0c0,0,0,0-0.1-0.1c-0.4-0.4-0.7-0.7-1.1-1.1c0,0-0.1-0.1-0.1-0.1
			c0,0,0,0,0,0c0,0,0,0,0,0c0,0,0,0,0,0c0,0,0,0,0,0c0-0.1,0-0.3,0-0.4c0-0.7,0-1.4,0-2c0,0,0-0.1,0-0.1c0,0,0-0.1,0-0.1
			c0-0.1,0-0.1,0-0.2c0-0.1-0.1-0.2-0.1-0.3c-0.1-0.1-0.2-0.2-0.3-0.3c-0.2-0.1-0.4-0.2-0.6-0.2c-0.2,0-0.4,0.1-0.6,0.2
			c-0.2,0.1-0.3,0.3-0.3,0.5c0,0.1,0,0.2,0,0.3c0,0,0,0,0,0.1c0,0,0,0,0,0c0,0.8,0,1.6,0,2.4c0,0,0,0,0,0.1c0,0,0,0.1,0,0.1
			c0,0,0,0,0,0c0,0,0,0-0.1,0.1c0,0,0,0-0.1,0.1c-0.3,0.3-0.7,0.6-1,1c0,0-0.1,0.1-0.1,0.1c0,0,0,0-0.1,0.1c0,0,0,0,0,0c0,0,0,0,0,0
			c0,0,0,0-0.1,0c0,0,0,0,0,0c0,0,0,0,0,0c0,0,0,0-0.1-0.1c-0.9-1-1.9-1.9-2.8-2.9c-1.6-1.7-3.2-3.3-4.8-5c-2.9-3.2-5.8-6.4-8.6-9.7
			c-3.1-3.7-6.2-7.4-9.2-11.2c-0.6-0.8-1.2-1.5-1.8-2.3c-0.3-0.4-0.7-0.9-1-1.4c-0.1-0.1-0.1-0.2-0.2-0.2c0,0,0-0.1-0.1-0.1
			c0-0.1-0.1-0.1-0.1-0.2c-0.1-0.2-0.2-0.3-0.3-0.5c-0.1-0.2-0.1-0.4-0.2-0.5c-0.1-0.5-0.1-1.1,0-1.6c0.1-0.3,0.2-0.5,0.3-0.7
			c0.1-0.2,0.3-0.4,0.5-0.6c0-0.1,0.1-0.1,0.2-0.2c0.2-0.2,0.4-0.4,0.6-0.6c0.4-0.4,0.8-0.8,1.1-1.1c8-8,16-15.9,24-23.9
			c0.1-0.1,0.2-0.2,0.3-0.3c0.1-0.1,0.2-0.2,0.3-0.4c0.1-0.1,0.2-0.2,0.2-0.4c0.1-0.3,0.2-0.5,0.3-0.8c0-0.1,0.1-0.2,0.1-0.4
			c0-0.1,0-0.1,0-0.2c0-0.1,0-0.1,0-0.2c0-0.1,0-0.3,0-0.4c0-0.1,0-0.3,0-0.4c0.5-16.5,1-33,1.5-49.4c0.5-14.7,0.9-29.4,1.4-44.1
			c0,0,0-0.1,0-0.1c0,0,0-0.1,0-0.1c0-0.1,0-0.3,0.1-0.4c0-0.1,0.1-0.3,0.2-0.4c0,0,0.1-0.1,0.1-0.1c0.1-0.1,0.1-0.1,0.2-0.2
			c0.1,0,0.1-0.1,0.2-0.1c0.1,0,0.1,0,0.2-0.1c0.2,0,0.4,0,0.5,0c0.2,0,0.4,0.1,0.5,0.3c0,0,0.1,0.1,0.1,0.1c0,0,0.1,0.1,0.1,0.1
			c0.1,0.1,0.1,0.2,0.1,0.2c0,0.1,0.1,0.2,0.1,0.2c0,0,0,0.1,0,0.1c0,0.1,0,0.1,0,0.2c0,0.1,0,0.1,0,0.2s0,0.1,0,0.2
			c0.7,27.7,1.4,55.4,2.1,83c0.1,2.9,0.1,5.8,0.2,8.7c0,0.4,0,0.9,0,1.3c0,0.4,0,0.8,0,1.2c0,0.1,0,0.3,0,0.4c0,0.1,0,0.3,0.1,0.4
			c0.1,0.4,0.3,0.7,0.5,1.1c0.1,0.2,0.2,0.3,0.4,0.4c0,0,0.1,0.1,0.1,0.1c0.1,0.1,0.2,0.2,0.4,0.4c8.4,8.4,16.8,16.9,25.1,25.3
			c0.1,0.1,0.1,0.1,0.2,0.2c0.1,0.1,0.2,0.2,0.2,0.3c0.5,0.6,0.8,1.3,0.8,2c0,0.4-0.1,0.8-0.2,1.1
			C348.5,230.4,348.3,230.7,348.1,231z"/>
		<path class="st0" d="M408.2,298.2c-6,6.3-12,12.6-18.1,19c-0.1,0.1-0.1,0.2-0.2,0.2c-0.1,0.1-0.2,0.2-0.3,0.4
			c-0.5,0.5-0.8,1.2-1,1.8c-0.2,0.7-0.4,1.4-0.3,2.1c0,0.3,0,0.7,0.1,1c0.1,0.3,0.2,0.7,0.3,1c0.2,0.6,0.6,1.2,1.1,1.7
			c0.1,0.1,0.1,0.1,0.2,0.2c0.1,0.1,0.1,0.2,0.2,0.2c0.1,0.1,0.1,0.1,0.2,0.2c5.9,6.3,11.9,12.6,17.8,18.9c0,0,0,0,0.1,0.1
			c0.1,0.1,0.3,0.2,0.4,0.3c0.2,0.1,0.4,0.1,0.5,0.1c0.2,0,0.4,0,0.5-0.1c0.1,0,0.2-0.1,0.2-0.1c0.1-0.1,0.1-0.1,0.2-0.2
			c0,0,0,0,0.1-0.1c0,0,0,0,0.1-0.1c5.9-6.2,11.7-12.3,17.6-18.5c0.1-0.2,0.3-0.3,0.4-0.5c0.1-0.1,0.2-0.2,0.2-0.2
			c0,0,0.1-0.1,0.1-0.1c0.5-0.5,0.8-1.2,1.1-1.8c0.3-0.7,0.4-1.4,0.4-2.2c0-0.7-0.2-1.5-0.5-2.1c-0.2-0.4-0.4-0.9-0.7-1.3
			c-0.1-0.2-0.3-0.3-0.4-0.5c-0.1-0.1-0.1-0.1-0.2-0.2c0-0.1-0.1-0.1-0.1-0.2c-0.2-0.2-0.4-0.5-0.7-0.7c-0.1-0.1-0.2-0.3-0.4-0.4
			c-0.6-0.6-1.2-1.3-1.8-1.9c-1.1-1.1-2.2-2.3-3.2-3.4c-1.1-1.1-2.1-2.3-3.2-3.4c-1.2-1.2-2.3-2.5-3.5-3.7c-1.6-1.7-3.2-3.4-4.8-5.1
			c0,0-0.1-0.1-0.1-0.1c-0.1-0.1-0.1-0.1-0.2-0.2c0,0-0.1-0.1-0.1-0.1c0,0-0.1-0.1-0.1-0.1c0,0,0,0-0.1,0c-0.1-0.1-0.3-0.2-0.4-0.2
			c-0.2,0-0.3-0.1-0.5-0.1c-0.2,0-0.3,0-0.5,0.1C408.5,297.9,408.3,298,408.2,298.2z"/>
		<path class="st0" d="M407.1,352.7c-5.8-4.4-11.4-9.1-16.9-13.9c-5.4-4.7-10.6-9.7-15.7-14.8c0,0,0,0,0,0c0,0,0,0,0,0c0,0,0,0,0,0
			c0,0,0,0,0,0c0,0,0,0,0-0.1c0,0,0,0,0-0.1c0,0,0,0,0,0c0,0,0,0,0,0c0,0,0,0,0.1-0.1c0.4-0.4,0.7-0.7,1.1-1.1c0,0,0.1-0.1,0.1-0.1
			c0,0,0,0,0,0c0,0,0,0,0,0c0,0,0,0,0,0c0,0,0,0,0,0c0.1,0,0.3,0,0.4,0c0.7,0,1.4,0,2,0c0,0,0.1,0,0.1,0c0,0,0.1,0,0.1,0
			c0.1,0,0.1,0,0.2,0c0.1,0,0.2-0.1,0.3-0.1c0.1-0.1,0.2-0.2,0.3-0.3c0.1-0.2,0.2-0.4,0.2-0.6c0-0.2-0.1-0.4-0.2-0.6
			c-0.1-0.2-0.3-0.3-0.5-0.3c-0.1,0-0.2,0-0.3,0c0,0,0,0-0.1,0c0,0,0,0,0,0c-0.8,0-1.6,0-2.4,0c0,0,0,0-0.1,0c0,0-0.1,0-0.1,0
			c0,0,0,0,0,0c0,0,0,0-0.1-0.1c0,0,0,0-0.1-0.1c-0.3-0.3-0.6-0.7-1-1c0,0-0.1-0.1-0.1-0.1c0,0,0,0-0.1-0.1c0,0,0,0,0,0c0,0,0,0,0,0
			c0,0,0,0,0-0.1c0,0,0,0,0,0c0,0,0,0,0,0c0,0,0,0,0.1-0.1c1-0.9,1.9-1.9,2.9-2.8c1.7-1.6,3.3-3.2,5-4.8c3.2-2.9,6.4-5.8,9.7-8.6
			c3.7-3.1,7.4-6.2,11.2-9.2c0.8-0.6,1.5-1.2,2.3-1.8c0.5-0.3,0.9-0.7,1.4-1c0.1-0.1,0.2-0.1,0.2-0.2c0,0,0.1,0,0.1-0.1
			c0.1,0,0.1-0.1,0.2-0.1c0.2-0.1,0.3-0.2,0.5-0.3c0.2-0.1,0.4-0.1,0.5-0.2c0.5-0.1,1.1-0.1,1.6,0c0.3,0.1,0.5,0.2,0.7,0.3
			c0.2,0.1,0.5,0.3,0.6,0.5c0.1,0,0.1,0.1,0.2,0.2c0.2,0.2,0.4,0.4,0.6,0.6c0.4,0.4,0.8,0.8,1.1,1.1c8,8,15.9,16,23.9,24
			c0.1,0.1,0.2,0.2,0.3,0.3c0.1,0.1,0.2,0.2,0.4,0.3c0.1,0.1,0.2,0.2,0.4,0.2c0.3,0.1,0.5,0.2,0.8,0.3c0.1,0,0.2,0.1,0.4,0.1
			c0.1,0,0.1,0,0.2,0c0.1,0,0.1,0,0.2,0c0.1,0,0.3,0,0.4,0c0.1,0,0.3,0,0.4,0c16.5,0.5,33,1,49.4,1.5c14.7,0.5,29.4,0.9,44.1,1.4
			c0,0,0.1,0,0.1,0c0,0,0.1,0,0.1,0c0.1,0,0.3,0,0.4,0.1c0.1,0,0.3,0.1,0.4,0.2c0,0,0.1,0.1,0.1,0.1c0.1,0.1,0.1,0.1,0.2,0.2
			c0,0.1,0.1,0.1,0.1,0.2c0,0.1,0,0.1,0.1,0.2c0,0.2,0,0.4,0,0.5c0,0.2-0.1,0.4-0.3,0.5c0,0-0.1,0.1-0.1,0.1c0,0-0.1,0.1-0.1,0.1
			c-0.1,0.1-0.2,0.1-0.2,0.1c-0.1,0-0.2,0.1-0.2,0.1c0,0-0.1,0-0.1,0c-0.1,0-0.1,0-0.2,0c-0.1,0-0.1,0-0.2,0s-0.1,0-0.2,0
			c-27.7,0.7-55.4,1.4-83,2.1c-2.9,0.1-5.8,0.1-8.7,0.2c-0.4,0-0.9,0-1.3,0c-0.4,0-0.8,0-1.2,0c-0.1,0-0.3,0-0.4,0
			c-0.1,0-0.3,0-0.4,0.1c-0.4,0.1-0.7,0.3-1.1,0.5c-0.2,0.1-0.3,0.2-0.4,0.4c0,0-0.1,0.1-0.1,0.1c-0.1,0.1-0.2,0.2-0.4,0.4
			c-8.4,8.4-16.9,16.8-25.3,25.1c-0.1,0.1-0.1,0.1-0.2,0.2c-0.1,0.1-0.2,0.2-0.3,0.2c-0.6,0.5-1.3,0.8-2,0.8c-0.4,0-0.8-0.1-1.1-0.2
			C407.7,353,407.4,352.9,407.1,352.7z"/>
		<path class="st0" d="M339.9,412.8c-6.3-6-12.6-12-19-18.1c-0.1-0.1-0.2-0.1-0.2-0.2c-0.1-0.1-0.2-0.2-0.4-0.3
			c-0.5-0.5-1.2-0.8-1.8-1c-0.7-0.2-1.4-0.4-2.1-0.3c-0.3,0-0.7,0-1,0.1c-0.3,0.1-0.7,0.2-1,0.3c-0.6,0.2-1.2,0.6-1.7,1.1
			c-0.1,0.1-0.1,0.1-0.2,0.2c-0.1,0.1-0.2,0.1-0.2,0.2c-0.1,0.1-0.1,0.1-0.2,0.2c-6.3,5.9-12.6,11.9-18.9,17.8c0,0,0,0-0.1,0.1
			c-0.1,0.1-0.2,0.3-0.3,0.4c-0.1,0.2-0.1,0.4-0.1,0.5c0,0.2,0,0.4,0.1,0.5c0,0.1,0.1,0.2,0.1,0.2c0.1,0.1,0.1,0.1,0.2,0.2
			c0,0,0,0,0.1,0.1c0,0,0,0,0.1,0.1c6.2,5.9,12.3,11.7,18.5,17.6c0.2,0.1,0.3,0.3,0.5,0.4c0.1,0.1,0.2,0.2,0.2,0.2
			c0,0,0.1,0.1,0.1,0.1c0.5,0.5,1.2,0.8,1.8,1.1c0.7,0.3,1.4,0.4,2.2,0.4c0.7,0,1.5-0.2,2.1-0.5c0.4-0.2,0.9-0.4,1.3-0.7
			c0.2-0.1,0.3-0.3,0.5-0.4c0.1-0.1,0.1-0.1,0.2-0.2c0.1,0,0.1-0.1,0.2-0.1c0.2-0.2,0.5-0.4,0.7-0.7c0.1-0.1,0.3-0.2,0.4-0.4
			c0.6-0.6,1.3-1.2,1.9-1.8c1.1-1.1,2.3-2.2,3.4-3.2c1.1-1.1,2.3-2.1,3.4-3.2c1.2-1.2,2.5-2.3,3.7-3.5c1.7-1.6,3.4-3.2,5.1-4.8
			c0,0,0.1-0.1,0.1-0.1c0.1-0.1,0.1-0.1,0.2-0.2c0,0,0.1-0.1,0.1-0.1c0,0,0.1-0.1,0.1-0.1c0,0,0,0,0-0.1c0.1-0.1,0.2-0.3,0.2-0.4
			c0-0.2,0.1-0.3,0.1-0.5c0-0.2,0-0.3-0.1-0.5C340.1,413,340,412.9,339.9,412.8z"/>
		<path class="st0" d="M285.4,411.6c4.4-5.8,9.1-11.4,13.9-16.9c4.7-5.4,9.7-10.6,14.8-15.7c0,0,0,0,0,0c0,0,0,0,0,0c0,0,0,0,0,0
			c0,0,0,0,0,0c0,0,0,0,0.1,0c0,0,0,0,0.1,0c0,0,0,0,0,0c0,0,0,0,0,0c0,0,0,0,0.1,0.1c0.4,0.4,0.7,0.7,1.1,1.1c0,0,0.1,0.1,0.1,0.1
			c0,0,0,0,0,0c0,0,0,0,0,0c0,0,0,0,0,0c0,0,0,0,0,0c0,0.1,0,0.3,0,0.4c0,0.7,0,1.4,0,2c0,0,0,0.1,0,0.1c0,0,0,0.1,0,0.1
			c0,0.1,0,0.1,0,0.2c0,0.1,0.1,0.2,0.1,0.3c0.1,0.1,0.2,0.2,0.3,0.3c0.2,0.1,0.4,0.2,0.6,0.2c0.2,0,0.4-0.1,0.6-0.2
			c0.2-0.1,0.3-0.3,0.3-0.5c0-0.1,0-0.2,0-0.3c0,0,0,0,0-0.1c0,0,0,0,0,0c0-0.8,0-1.6,0-2.4c0,0,0,0,0-0.1c0,0,0-0.1,0-0.1
			c0,0,0,0,0,0c0,0,0,0,0.1-0.1c0,0,0,0,0.1-0.1c0.3-0.3,0.7-0.6,1-1c0,0,0.1-0.1,0.1-0.1c0,0,0,0,0.1-0.1c0,0,0,0,0,0c0,0,0,0,0,0
			c0,0,0,0,0.1,0c0,0,0,0,0,0c0,0,0,0,0,0c0,0,0,0,0.1,0.1c0.9,1,1.9,1.9,2.8,2.9c1.6,1.7,3.2,3.3,4.8,5c2.9,3.2,5.8,6.4,8.6,9.7
			c3.1,3.7,6.2,7.4,9.2,11.2c0.6,0.8,1.2,1.5,1.8,2.3c0.3,0.5,0.7,0.9,1,1.4c0.1,0.1,0.1,0.2,0.2,0.2c0,0,0,0.1,0.1,0.1
			c0,0.1,0.1,0.1,0.1,0.2c0.1,0.2,0.2,0.3,0.3,0.5c0.1,0.2,0.1,0.4,0.2,0.5c0.1,0.5,0.1,1.1,0,1.6c-0.1,0.3-0.2,0.5-0.3,0.7
			c-0.1,0.2-0.3,0.5-0.5,0.6c0,0.1-0.1,0.1-0.2,0.2c-0.2,0.2-0.4,0.4-0.6,0.6c-0.4,0.4-0.8,0.8-1.1,1.1c-8,8-16,15.9-24,23.9
			c-0.1,0.1-0.2,0.2-0.3,0.3c-0.1,0.1-0.2,0.2-0.3,0.4c-0.1,0.1-0.2,0.2-0.2,0.4c-0.1,0.3-0.2,0.5-0.3,0.8c0,0.1-0.1,0.2-0.1,0.4
			c0,0.1,0,0.1,0,0.2c0,0.1,0,0.1,0,0.2c0,0.1,0,0.3,0,0.4c0,0.1,0,0.3,0,0.4c-0.5,16.5-1,33-1.5,49.4c-0.5,14.7-0.9,29.4-1.4,44.1
			c0,0,0,0.1,0,0.1c0,0,0,0.1,0,0.1c0,0.1,0,0.3-0.1,0.4c0,0.1-0.1,0.3-0.2,0.4c0,0-0.1,0.1-0.1,0.1c-0.1,0.1-0.1,0.1-0.2,0.2
			c-0.1,0-0.1,0.1-0.2,0.1c-0.1,0-0.1,0-0.2,0.1c-0.2,0-0.4,0-0.5,0c-0.2,0-0.4-0.1-0.5-0.3c0,0-0.1-0.1-0.1-0.1
			c0,0-0.1-0.1-0.1-0.1c-0.1-0.1-0.1-0.2-0.1-0.2c0-0.1-0.1-0.2-0.1-0.2c0,0,0-0.1,0-0.1c0-0.1,0-0.1,0-0.2c0-0.1,0-0.1,0-0.2
			s0-0.1,0-0.2c-0.7-27.7-1.4-55.4-2.1-83c-0.1-2.9-0.1-5.8-0.2-8.7c0-0.4,0-0.9,0-1.3c0-0.4,0-0.8,0-1.2c0-0.1,0-0.3,0-0.4
			c0-0.1,0-0.3-0.1-0.4c-0.1-0.4-0.3-0.7-0.5-1.1c-0.1-0.2-0.2-0.3-0.4-0.4c0,0-0.1-0.1-0.1-0.1c-0.1-0.1-0.2-0.2-0.4-0.4
			c-8.4-8.4-16.8-16.9-25.1-25.3c-0.1-0.1-0.1-0.1-0.2-0.2c-0.1-0.1-0.2-0.2-0.2-0.3c-0.5-0.6-0.8-1.3-0.8-2c0-0.4,0.1-0.8,0.2-1.1
			C285,412.2,285.2,411.9,285.4,411.6z"/>
	</g>
</g>
<g id="Layer_2">
	<g>
		<path d="M302.3,78.1h11v1.2h-4.8v13.9h-1.4V79.3h-4.8V78.1z"/>
		<path d="M324.1,94.8v1h-10.5v-1H324.1z"/>
		<path d="M330,78.4c0.7,0,1.4,0.1,1.9,0.3c0.5,0.2,1,0.5,1.4,0.9s0.7,0.8,0.9,1.3c0.2,0.5,0.4,1,0.5,1.6c0.1,0.6,0.2,1.2,0.3,1.8
			s0.1,1.2,0.1,1.8c0,1-0.1,1.9-0.2,2.8c-0.1,0.9-0.4,1.7-0.8,2.4c-0.4,0.7-0.9,1.2-1.5,1.6s-1.5,0.6-2.5,0.6c-1,0-1.9-0.2-2.5-0.6
			c-0.7-0.4-1.2-1-1.5-1.6c-0.4-0.7-0.6-1.5-0.8-2.4c-0.1-0.9-0.2-1.9-0.2-2.9c0-0.9,0.1-1.9,0.2-2.8c0.1-0.9,0.4-1.7,0.7-2.4
			c0.4-0.7,0.9-1.3,1.5-1.7S328.9,78.4,330,78.4z M333.6,85.9c0-0.8,0-1.6-0.1-2.3s-0.3-1.4-0.5-2c-0.3-0.6-0.6-1.1-1.1-1.4
			c-0.5-0.4-1.1-0.5-1.9-0.5c-0.7,0-1.3,0.2-1.8,0.6s-0.8,0.9-1.1,1.5s-0.5,1.3-0.6,2.1c-0.1,0.8-0.2,1.6-0.2,2.4
			c0,1,0.1,1.8,0.2,2.6c0.1,0.8,0.3,1.4,0.6,2c0.3,0.5,0.7,1,1.1,1.3c0.5,0.3,1.1,0.5,1.8,0.5c0.8,0,1.4-0.2,1.9-0.6
			c0.5-0.4,0.9-0.9,1.1-1.5c0.3-0.6,0.4-1.3,0.5-2.1C333.6,87.4,333.6,86.6,333.6,85.9z"/>
	</g>
	<g>
		<path d="M61.7,313.1h11v1.2h-4.8v13.9h-1.4v-13.9h-4.8V313.1z"/>
		<path d="M83.5,329.8v1H73v-1H83.5z"/>
		<path d="M88.1,320c0.6,0,1.2,0,1.7-0.1c0.5-0.1,1-0.2,1.3-0.4c0.4-0.2,0.7-0.5,0.9-0.9c0.2-0.4,0.3-0.8,0.3-1.4
			c0-0.5-0.1-0.9-0.3-1.2s-0.4-0.6-0.7-0.8s-0.6-0.4-1-0.5c-0.4-0.1-0.8-0.1-1.2-0.1c-0.5,0-0.9,0.1-1.3,0.2c-0.4,0.2-0.7,0.4-1,0.7
			c-0.3,0.3-0.5,0.6-0.7,1c-0.2,0.4-0.2,0.8-0.2,1.3h-1.3c0-0.7,0.1-1.3,0.3-1.8c0.2-0.5,0.6-1,1.1-1.5c0.5-0.4,1-0.7,1.6-0.8
			c0.6-0.1,1.2-0.2,1.8-0.2c0.6,0,1.1,0.1,1.6,0.2s1,0.4,1.3,0.7c0.4,0.3,0.7,0.7,0.9,1.1c0.2,0.5,0.3,1,0.3,1.6
			c0,0.8-0.2,1.4-0.5,2c-0.3,0.6-0.9,1-1.6,1.3c0.5,0.2,1,0.4,1.3,0.7c0.3,0.3,0.6,0.6,0.8,0.9c0.2,0.3,0.3,0.7,0.4,1
			c0.1,0.4,0.1,0.7,0.1,1c0,0.6-0.1,1.2-0.3,1.7c-0.2,0.5-0.5,1-0.9,1.4s-0.9,0.7-1.5,1c-0.6,0.2-1.3,0.4-2,0.4
			c-0.9,0-1.6-0.1-2.2-0.2c-0.6-0.2-1.2-0.4-1.6-0.8c-0.4-0.4-0.7-0.8-1-1.4c-0.2-0.6-0.4-1.3-0.5-2.2h1.3c0,1.1,0.3,2,1,2.6
			c0.7,0.6,1.6,0.9,2.7,0.9c0.5,0,1-0.1,1.5-0.3c0.5-0.2,0.9-0.4,1.2-0.7c0.3-0.3,0.6-0.7,0.8-1.1c0.2-0.4,0.3-0.8,0.2-1.3
			c0-0.6-0.2-1.1-0.4-1.5c-0.3-0.4-0.6-0.7-1-0.9c-0.4-0.2-0.9-0.4-1.5-0.5c-0.6-0.1-1.2-0.1-1.8-0.1V320z"/>
	</g>
	<g>
		<path d="M302.3,546.8h11v1.2h-4.8v13.9h-1.4V548h-4.8V546.8z"/>
		<path d="M324.1,563.5v1h-10.5v-1H324.1z"/>
		<path d="M325.6,551.9c0-0.7,0.1-1.4,0.3-2c0.2-0.6,0.5-1.1,1-1.5s0.9-0.8,1.5-1c0.6-0.2,1.3-0.3,2-0.3c0.7,0,1.4,0.1,2,0.3
			c0.6,0.2,1,0.5,1.4,0.9c0.4,0.4,0.7,0.8,0.9,1.3c0.2,0.5,0.3,1,0.3,1.6c0,0.7-0.1,1.2-0.3,1.7c-0.2,0.5-0.5,1-0.9,1.3
			c-0.4,0.4-0.8,0.7-1.2,1c-0.5,0.3-0.9,0.6-1.4,0.9c-0.5,0.3-0.9,0.5-1.4,0.8c-0.5,0.3-0.9,0.5-1.2,0.8c-0.2,0.2-0.5,0.4-0.7,0.6
			c-0.2,0.2-0.4,0.4-0.6,0.7c-0.2,0.2-0.3,0.5-0.4,0.8s-0.2,0.6-0.2,1h8.3v1.1h-9.7c0-0.7,0.1-1.4,0.2-1.9c0.1-0.6,0.4-1.1,0.9-1.7
			c0.5-0.6,1.1-1.1,1.6-1.5c0.6-0.4,1.1-0.8,1.6-1.1c0.5-0.3,1-0.6,1.5-0.9c0.5-0.3,0.9-0.6,1.3-0.9s0.7-0.7,0.9-1.1
			c0.2-0.4,0.3-0.9,0.3-1.5c0-0.5-0.1-0.9-0.3-1.3s-0.4-0.7-0.7-1s-0.6-0.5-1-0.6c-0.4-0.1-0.8-0.2-1.3-0.2c-0.5,0-0.9,0.1-1.3,0.3
			c-0.4,0.2-0.7,0.5-1,0.8s-0.5,0.7-0.7,1.2c-0.2,0.4-0.2,0.9-0.2,1.4H325.6z"/>
	</g>
	<g>
		<path d="M538.8,313.1h11v1.2H545v13.9h-1.4v-13.9h-4.8V313.1z"/>
		<path d="M560.6,329.8v1h-10.5v-1H560.6z"/>
		<path d="M567,317.2h-3.8v-0.9c0.6,0,1.1-0.1,1.5-0.2c0.5-0.1,0.9-0.2,1.2-0.4c0.3-0.2,0.6-0.5,0.9-0.9c0.2-0.4,0.4-0.9,0.5-1.5
			h1.1v14.8H567V317.2z"/>
	</g>
	<g>
		<path d="M404.3,260.8v-15.1h5.5c0.9,0,1.6,0.1,2.3,0.3c0.6,0.2,1.1,0.4,1.5,0.8c0.4,0.3,0.7,0.7,0.9,1.2s0.3,1,0.3,1.5
			c0,0.5-0.1,1-0.2,1.4c-0.1,0.4-0.3,0.7-0.5,1c-0.2,0.3-0.5,0.5-0.8,0.6c-0.3,0.1-0.6,0.2-0.9,0.3v0c1,0.2,1.8,0.6,2.3,1.2
			c0.5,0.7,0.8,1.5,0.8,2.5c0,0.8-0.1,1.4-0.4,2s-0.6,1-1,1.3s-1,0.6-1.6,0.7c-0.6,0.1-1.3,0.2-2,0.2H404.3z M405.7,252.4h3.6
			c0.7,0,1.4-0.1,1.9-0.2s0.9-0.3,1.2-0.6c0.3-0.2,0.5-0.5,0.7-0.9s0.2-0.8,0.2-1.2c0-0.5-0.1-0.9-0.2-1.2s-0.4-0.6-0.7-0.8
			c-0.3-0.2-0.8-0.3-1.3-0.4c-0.5-0.1-1.2-0.1-2-0.1h-3.3V252.4z M405.7,259.6h3.6c0.8,0,1.5,0,2-0.1c0.6-0.1,1.1-0.2,1.4-0.4
			c0.4-0.2,0.7-0.5,0.9-0.9c0.2-0.4,0.3-0.9,0.3-1.6c0-0.6-0.1-1.1-0.3-1.5c-0.2-0.4-0.5-0.7-0.9-0.9c-0.4-0.2-0.9-0.4-1.4-0.4
			c-0.5-0.1-1.2-0.1-1.8-0.1h-3.8V259.6z"/>
		<path d="M427.1,262.4v1h-10.5v-1H427.1z"/>
		<path d="M432.9,246c0.7,0,1.4,0.1,1.9,0.3c0.5,0.2,1,0.5,1.4,0.9s0.7,0.8,0.9,1.3c0.2,0.5,0.4,1,0.5,1.6c0.1,0.6,0.2,1.2,0.3,1.8
			s0.1,1.2,0.1,1.8c0,1-0.1,1.9-0.2,2.8c-0.1,0.9-0.4,1.7-0.8,2.4c-0.4,0.7-0.9,1.2-1.5,1.6s-1.5,0.6-2.5,0.6c-1,0-1.9-0.2-2.5-0.6
			c-0.7-0.4-1.2-1-1.5-1.6c-0.4-0.7-0.6-1.5-0.8-2.4c-0.1-0.9-0.2-1.9-0.2-2.9c0-0.9,0.1-1.9,0.2-2.8c0.1-0.9,0.4-1.7,0.7-2.4
			c0.4-0.7,0.9-1.3,1.5-1.7S431.9,246,432.9,246z M436.6,253.5c0-0.8,0-1.6-0.1-2.3s-0.3-1.4-0.5-2c-0.3-0.6-0.6-1.1-1.1-1.4
			c-0.5-0.4-1.1-0.5-1.9-0.5c-0.7,0-1.3,0.2-1.8,0.6s-0.8,0.9-1.1,1.5s-0.5,1.3-0.6,2.1c-0.1,0.8-0.2,1.6-0.2,2.4
			c0,1,0.1,1.8,0.2,2.6c0.1,0.8,0.3,1.4,0.6,2c0.3,0.5,0.7,1,1.1,1.3c0.5,0.3,1.1,0.5,1.8,0.5c0.8,0,1.4-0.2,1.9-0.6
			c0.5-0.4,0.9-0.9,1.1-1.5c0.3-0.6,0.4-1.3,0.5-2.1C436.5,255,436.6,254.3,436.6,253.5z"/>
	</g>
	<g>
		<path d="M404.3,398.4v-15.1h5.5c0.9,0,1.6,0.1,2.3,0.3c0.6,0.2,1.1,0.4,1.5,0.8c0.4,0.3,0.7,0.7,0.9,1.2c0.2,0.5,0.3,1,0.3,1.5
			c0,0.5-0.1,1-0.2,1.4c-0.1,0.4-0.3,0.7-0.5,1c-0.2,0.3-0.5,0.5-0.8,0.6c-0.3,0.1-0.6,0.2-0.9,0.3v0c1,0.2,1.8,0.6,2.3,1.2
			c0.5,0.7,0.8,1.5,0.8,2.5c0,0.8-0.1,1.4-0.4,2s-0.6,1-1,1.3s-1,0.6-1.6,0.7c-0.6,0.1-1.3,0.2-2,0.2H404.3z M405.7,390h3.6
			c0.7,0,1.4-0.1,1.9-0.2s0.9-0.3,1.2-0.6c0.3-0.2,0.5-0.5,0.7-0.9c0.1-0.4,0.2-0.8,0.2-1.2c0-0.5-0.1-0.9-0.2-1.2s-0.4-0.6-0.7-0.8
			c-0.3-0.2-0.8-0.3-1.3-0.4s-1.2-0.1-2-0.1h-3.3V390z M405.7,397.2h3.6c0.8,0,1.5,0,2-0.1s1.1-0.2,1.4-0.4c0.4-0.2,0.7-0.5,0.9-0.9
			c0.2-0.4,0.3-0.9,0.3-1.6c0-0.6-0.1-1.1-0.3-1.5c-0.2-0.4-0.5-0.7-0.9-0.9c-0.4-0.2-0.9-0.4-1.4-0.4s-1.2-0.1-1.8-0.1h-3.8V397.2z
			"/>
		<path d="M427.1,400v1h-10.5v-1H427.1z"/>
		<path d="M433.4,387.4h-3.8v-0.9c0.6,0,1.1-0.1,1.5-0.2c0.5-0.1,0.9-0.2,1.2-0.4s0.6-0.5,0.9-0.9c0.2-0.4,0.4-0.9,0.5-1.5h1.1v14.8
			h-1.3V387.4z"/>
	</g>
	<g>
		<path d="M201.1,395.8v-15.1h5.5c0.9,0,1.6,0.1,2.3,0.3c0.6,0.2,1.1,0.4,1.5,0.8c0.4,0.3,0.7,0.7,0.9,1.2c0.2,0.5,0.3,1,0.3,1.5
			c0,0.5-0.1,1-0.2,1.4c-0.1,0.4-0.3,0.7-0.5,1c-0.2,0.3-0.5,0.5-0.8,0.6c-0.3,0.1-0.6,0.2-0.9,0.3v0c1,0.2,1.8,0.6,2.3,1.2
			c0.5,0.7,0.8,1.5,0.8,2.5c0,0.8-0.1,1.4-0.4,2s-0.6,1-1,1.3s-1,0.6-1.6,0.7c-0.6,0.1-1.3,0.2-2,0.2H201.1z M202.5,387.3h3.6
			c0.7,0,1.4-0.1,1.9-0.2s0.9-0.3,1.2-0.6c0.3-0.2,0.5-0.5,0.7-0.9c0.1-0.4,0.2-0.8,0.2-1.2c0-0.5-0.1-0.9-0.2-1.2s-0.4-0.6-0.7-0.8
			c-0.3-0.2-0.8-0.3-1.3-0.4s-1.2-0.1-2-0.1h-3.3V387.3z M202.5,394.6h3.6c0.8,0,1.5,0,2-0.1s1.1-0.2,1.4-0.4
			c0.4-0.2,0.7-0.5,0.9-0.9c0.2-0.4,0.3-0.9,0.3-1.6c0-0.6-0.1-1.1-0.3-1.5c-0.2-0.4-0.5-0.7-0.9-0.9c-0.4-0.2-0.9-0.4-1.4-0.4
			s-1.2-0.1-1.8-0.1h-3.8V394.6z"/>
		<path d="M223.9,397.3v1h-10.5v-1H223.9z"/>
		<path d="M225.3,385.8c0-0.7,0.1-1.4,0.3-2c0.2-0.6,0.5-1.1,1-1.5s0.9-0.8,1.5-1c0.6-0.2,1.3-0.3,2-0.3c0.7,0,1.4,0.1,2,0.3
			c0.6,0.2,1,0.5,1.4,0.9c0.4,0.4,0.7,0.8,0.9,1.3c0.2,0.5,0.3,1,0.3,1.6c0,0.7-0.1,1.2-0.3,1.7c-0.2,0.5-0.5,1-0.9,1.3
			c-0.4,0.4-0.8,0.7-1.2,1c-0.5,0.3-0.9,0.6-1.4,0.9c-0.5,0.3-0.9,0.5-1.4,0.8c-0.5,0.3-0.9,0.5-1.2,0.8c-0.2,0.2-0.5,0.4-0.7,0.6
			c-0.2,0.2-0.4,0.4-0.6,0.7c-0.2,0.2-0.3,0.5-0.4,0.8s-0.2,0.6-0.2,1h8.3v1.1h-9.7c0-0.7,0.1-1.4,0.2-1.9c0.1-0.6,0.4-1.1,0.9-1.7
			c0.5-0.6,1.1-1.1,1.6-1.5c0.6-0.4,1.1-0.8,1.6-1.1c0.5-0.3,1-0.6,1.5-0.9c0.5-0.3,0.9-0.6,1.3-0.9s0.7-0.7,0.9-1.1
			c0.2-0.4,0.3-0.9,0.3-1.5c0-0.5-0.1-0.9-0.3-1.3s-0.4-0.7-0.7-1s-0.6-0.5-1-0.6c-0.4-0.1-0.8-0.2-1.3-0.2c-0.5,0-0.9,0.1-1.3,0.3
			c-0.4,0.2-0.7,0.5-1,0.8s-0.5,0.7-0.7,1.2c-0.2,0.4-0.2,0.9-0.2,1.4H225.3z"/>
	</g>
	<g>
		<path d="M201.1,261.4v-15.1h5.5c0.9,0,1.6,0.1,2.3,0.3c0.6,0.2,1.1,0.4,1.5,0.8c0.4,0.3,0.7,0.7,0.9,1.2s0.3,1,0.3,1.5
			c0,0.5-0.1,1-0.2,1.4c-0.1,0.4-0.3,0.7-0.5,1c-0.2,0.3-0.5,0.5-0.8,0.6c-0.3,0.1-0.6,0.2-0.9,0.3v0c1,0.2,1.8,0.6,2.3,1.2
			c0.5,0.7,0.8,1.5,0.8,2.5c0,0.8-0.1,1.4-0.4,2s-0.6,1-1,1.3s-1,0.6-1.6,0.7c-0.6,0.1-1.3,0.2-2,0.2H201.1z M202.5,253h3.6
			c0.7,0,1.4-0.1,1.9-0.2s0.9-0.3,1.2-0.6c0.3-0.2,0.5-0.5,0.7-0.9s0.2-0.8,0.2-1.2c0-0.5-0.1-0.9-0.2-1.2s-0.4-0.6-0.7-0.8
			c-0.3-0.2-0.8-0.3-1.3-0.4c-0.5-0.1-1.2-0.1-2-0.1h-3.3V253z M202.5,260.2h3.6c0.8,0,1.5,0,2-0.1c0.6-0.1,1.1-0.2,1.4-0.4
			c0.4-0.2,0.7-0.5,0.9-0.9c0.2-0.4,0.3-0.9,0.3-1.6c0-0.6-0.1-1.1-0.3-1.5c-0.2-0.4-0.5-0.7-0.9-0.9c-0.4-0.2-0.9-0.4-1.4-0.4
			c-0.5-0.1-1.2-0.1-1.8-0.1h-3.8V260.2z"/>
		<path d="M223.9,263v1h-10.5v-1H223.9z"/>
		<path d="M228.5,253.2c0.6,0,1.2,0,1.7-0.1c0.5-0.1,1-0.2,1.3-0.4c0.4-0.2,0.7-0.5,0.9-0.9c0.2-0.4,0.3-0.8,0.3-1.4
			c0-0.5-0.1-0.9-0.3-1.2s-0.4-0.6-0.7-0.8s-0.6-0.4-1-0.5c-0.4-0.1-0.8-0.1-1.2-0.1c-0.5,0-0.9,0.1-1.3,0.2c-0.4,0.2-0.7,0.4-1,0.7
			c-0.3,0.3-0.5,0.6-0.7,1c-0.2,0.4-0.2,0.8-0.2,1.3h-1.3c0-0.7,0.1-1.3,0.3-1.8c0.2-0.5,0.6-1,1.1-1.5c0.5-0.4,1-0.7,1.6-0.8
			c0.6-0.1,1.2-0.2,1.8-0.2c0.6,0,1.1,0.1,1.6,0.2s1,0.4,1.3,0.7c0.4,0.3,0.7,0.7,0.9,1.1c0.2,0.5,0.3,1,0.3,1.6
			c0,0.8-0.2,1.4-0.5,2c-0.3,0.6-0.9,1-1.6,1.3c0.5,0.2,1,0.4,1.3,0.7s0.6,0.6,0.8,0.9c0.2,0.3,0.3,0.7,0.4,1c0.1,0.4,0.1,0.7,0.1,1
			c0,0.6-0.1,1.2-0.3,1.7c-0.2,0.5-0.5,1-0.9,1.4s-0.9,0.7-1.5,1c-0.6,0.2-1.3,0.4-2,0.4c-0.9,0-1.6-0.1-2.2-0.2s-1.2-0.4-1.6-0.8
			s-0.7-0.8-1-1.4c-0.2-0.6-0.4-1.3-0.5-2.2h1.3c0,1.1,0.3,2,1,2.6c0.7,0.6,1.6,0.9,2.7,0.9c0.5,0,1-0.1,1.5-0.3s0.9-0.4,1.2-0.7
			c0.3-0.3,0.6-0.7,0.8-1.1c0.2-0.4,0.3-0.8,0.2-1.3c0-0.6-0.2-1.1-0.4-1.5c-0.3-0.4-0.6-0.7-1-0.9c-0.4-0.2-0.9-0.4-1.5-0.5
			c-0.6-0.1-1.2-0.1-1.8-0.1V253.2z"/>
	</g>
</g>
</svg>
