<?xml version="1.0" encoding="utf-8"?>
<!-- Generator: Adobe Illustrator 23.0.0, SVG Export Plug-In . SVG Version: 6.00 Build 0)  -->
<svg version="1.1" id="Layer_1" xmlns="http://www.w3.org/2000/svg" xmlns:xlink="http://www.w3.org/1999/xlink" x="0px" y="0px"
	 width="637.8px" height="637.8px" viewBox="0 0 637.8 637.8" style="enable-background:new 0 0 637.8 637.8;" xml:space="preserve"
	>
<style type="text/css">
	.st0{fill:#ED194E;}
	.st1{fill:#EE1C4E;}
</style>
<path class="st0" d="M362.3,231.3c-1.3,1.3,1.7,8,2.1,9.8c1,4.5,1.5,9.1,1.6,13.7c0.1,4.4,0.1,9.4-1.1,13.7c-0.9,3.3-3.1,4.3-4.6,7
	c-2,3.5-0.1,3.7,2.7,1.8c2.7-1.8,3.2-3.3,6.6-4.2c4.6-1.2,10.1-1.1,14.9-1c4.2,0.2,8.4,0.7,12.5,1.6c1.9,0.4,8.6,3.5,9.8,2.1
	c2.5-2.7-9.7-14.9-11.5-16.6c-5.1-4.7-9.7-8.2-14.1-13.8C379.4,243.4,365.2,228.4,362.3,231.3z M368.5,269.6
	c0.8,0.8-6.6,8.2-7.4,7.4C360.3,276.2,367.8,268.8,368.5,269.6z M384.6,253c1.9,0.8-2.7,4.5-3.3,3.9
	C380.4,256,384.2,252.8,384.6,253z"/>
<path class="st0" d="M406.5,366.9c-1.3-1.3-8,1.7-9.8,2.1c-4.5,1-9.1,1.5-13.7,1.6c-4.4,0.1-9.4,0.1-13.7-1.1
	c-3.3-0.9-4.3-3.1-7-4.6c-3.5-2-3.7-0.1-1.8,2.7c1.8,2.7,3.3,3.2,4.2,6.6c1.2,4.6,1.1,10.1,1,14.9c-0.2,4.2-0.7,8.4-1.6,12.5
	c-0.4,1.9-3.5,8.6-2.1,9.8c2.7,2.5,14.9-9.7,16.6-11.5c4.7-5.1,8.2-9.7,13.8-14.1C394.4,384,409.5,369.9,406.5,366.9z M368.3,373.1
	c-0.8,0.8-8.2-6.6-7.4-7.4C361.7,365,369.1,372.4,368.3,373.1z M384.9,389.2c-0.8,1.9-4.5-2.7-3.9-3.3
	C381.9,385,385.1,388.8,384.9,389.2z"/>
<path class="st0" d="M271.2,411.1c1.3-1.3-1.7-8-2.1-9.8c-1-4.5-1.5-9.1-1.6-13.7c-0.1-4.4-0.1-9.4,1.1-13.7c0.9-3.3,3.1-4.3,4.6-7
	c2-3.5,0.1-3.7-2.7-1.8c-2.7,1.8-3.2,3.3-6.6,4.2c-4.6,1.2-10.1,1.1-14.9,1c-4.2-0.2-8.4-0.7-12.5-1.6c-1.9-0.4-8.6-3.5-9.8-2.1
	c-2.5,2.7,9.7,14.9,11.5,16.6c5.1,4.7,9.7,8.2,14.1,13.8C254,399,268.2,414.1,271.2,411.1z M264.9,372.9c-0.8-0.8,6.6-8.2,7.4-7.4
	C273.1,366.3,265.7,373.6,264.9,372.9z M248.9,389.5c-1.9-0.8,2.7-4.5,3.3-3.9C253,386.5,249.3,389.6,248.9,389.5z"/>
<path class="st0" d="M226.8,276.1c1.3,1.3,8-1.7,9.8-2.1c4.5-1,9.1-1.5,13.7-1.6c4.4-0.1,9.4-0.1,13.7,1.1c3.3,0.9,4.3,3.1,7,4.6
	c3.5,2,3.7,0.1,1.8-2.7c-1.8-2.7-3.3-3.2-4.2-6.6c-1.2-4.6-1.1-10.1-1-14.9c0.2-4.2,0.7-8.4,1.6-12.5c0.4-1.9,3.5-8.6,2.1-9.8
	c-2.7-2.5-14.9,9.7-16.6,11.5c-4.7,5.1-8.2,9.7-13.8,14.1C238.9,259,223.8,273.1,226.8,276.1z M265,269.9c0.8-0.8,8.2,6.6,7.4,7.4
	C271.6,278,264.2,270.6,265,269.9z M248.4,253.8c0.8-1.9,4.5,2.7,3.9,3.3C251.4,258,248.2,254.2,248.4,253.8z"/>
<path class="st1" d="M348.1,231c-5.5,7.2-11.3,14.2-17.5,20.9c-1.2,1.3-10.4,12.2-11.4,11.8c-2.7-1.2-0.2-6.6-3.3-4
	c-1.4,1.2,1.4,3.3-1.3,3.9c-1.8,0.4-8.4-8.4-9.6-9.8c-5.6-6.1-10.9-12.4-16-18.9c-2.3-2.9-4.6-4.6-2.8-8.2c1.2-2.6,5.3-5.3,7.4-7.3
	c3.1-3.1,6.1-6.1,9.2-9.2c3.1-3.1,9.2-7.1,10.4-11.5c1.9-6.6,0.5-16.2,0.7-23c0.3-10.1,0.6-20.1,0.9-30.2
	c0.3-10.1,0.6-20.2,0.9-30.3c0.1-2.7-1.6-10.9,1.1-12.4c1.4-0.8,1.3,0.9,1.7,1.3c1.5,1.6,0.3,11.6,0.4,14c0.1,5.5,0.3,11.1,0.4,16.6
	c0.3,11.1,0.6,22.1,0.8,33.2c0.2,9.7-0.5,19.8,0.7,29.4c0.8,5.9,7.1,9.7,11.2,13.8C334.8,213.6,351.6,226.5,348.1,231z"/>
<path class="st1" d="M440.1,317.7c8.9,0.2,95.3,0.9,95.4,4.1c0.1,2.5-84.5,2.9-93.3,3.6c-4.8,0.4-5.6,1.7-9.2,5.4
	c-3.2,3.2-6.5,6.4-9.7,9.7c-3.4,3.4-7.4,9.3-11.7,11.6c-5.5,3-11.8-5.2-15.9-8.6c-3.2-2.7-6.4-5.5-9.5-8.3
	c-1.5-1.3-12-9.7-11.7-11.2c0.5-2.8,3.3-0.4,4.6-1.9c1.7-2-4.3-1.1-4.6-3.3c-0.2-1.6,8.2-7.9,9.8-9.4c3.7-3.4,7.5-6.7,11.4-10
	c2.8-2.4,8.6-9.1,12.7-9.7c2.4-0.4,3.4,1.2,4.9,2.6c3.8,3.6,7.3,7.4,11,11.1c3.9,4,7.7,8.4,11.9,12c1.1,0.9,1.7,2,3.3,2.1"/>
<path class="st1" d="M285.4,411.6c5.5-7.2,11.3-14.2,17.5-20.9c1.2-1.3,10.4-12.2,11.4-11.8c2.7,1.2,0.2,6.6,3.3,4
	c1.4-1.2-1.4-3.3,1.3-3.9c1.8-0.4,8.4,8.4,9.6,9.8c5.6,6.1,10.9,12.4,16,18.9c2.3,2.9,4.6,4.6,2.8,8.2c-1.2,2.6-5.3,5.3-7.4,7.3
	c-3.1,3.1-6.1,6.1-9.2,9.2c-3.1,3.1-9.2,7.1-10.4,11.5c-1.9,6.6-0.5,16.2-0.7,23c-0.3,10.1-0.6,20.1-0.9,30.2
	c-0.3,10.1-0.6,20.2-0.9,30.3c-0.1,2.7,1.6,10.9-1.1,12.4c-1.4,0.8-1.3-0.9-1.7-1.3c-1.5-1.6-0.3-11.6-0.4-14
	c-0.1-5.5-0.3-11.1-0.4-16.6c-0.3-11.1-0.6-22.1-0.8-33.2c-0.2-9.7,0.5-19.8-0.7-29.4c-0.8-5.9-7.1-9.7-11.2-13.8
	C298.8,429,282,416.1,285.4,411.6z"/>
<path class="st1" d="M226.5,290c7.2,5.5,14.2,11.3,20.9,17.5c1.3,1.2,12.2,10.4,11.8,11.4c-1.2,2.7-6.6,0.2-4,3.3
	c1.2,1.4,3.3-1.4,3.9,1.3c0.4,1.8-8.4,8.4-9.8,9.6c-6.1,5.6-12.4,10.9-18.9,16c-2.9,2.3-4.6,4.6-8.2,2.8c-2.6-1.2-5.3-5.3-7.3-7.4
	c-3.1-3.1-6.1-6.1-9.2-9.2c-3.1-3.1-7.1-9.2-11.5-10.4c-6.6-1.9-16.2-0.5-23-0.7c-10.1-0.3-20.1-0.6-30.2-0.9
	c-10.1-0.3-20.2-0.6-30.3-0.9c-2.7-0.1-10.9,1.6-12.4-1.1c-0.8-1.4,0.9-1.3,1.3-1.7c1.6-1.5,11.6-0.3,14-0.4
	c5.5-0.1,11.1-0.3,16.6-0.4c11.1-0.3,22.1-0.6,33.2-0.8c9.7-0.2,19.8,0.5,29.4-0.7c5.9-0.8,9.7-7.1,13.8-11.2
	C209,303.3,222,286.5,226.5,290z"/>
</svg>
